solid
  facet normal -1.000000 -0.000000 -0.000000
    outer loop
      vertex -28.450000 -28.450000 -2.650000
      vertex -28.450000 -28.450000 2.650000
      vertex -28.450000 -18.800000 -2.650000
    endloop
  endfacet
  facet normal -1.000000 0.000000 -0.000000
    outer loop
      vertex -28.450000 -18.800000 -2.650000
      vertex -28.450000 -28.450000 2.650000
      vertex -28.450000 28.450000 2.650000
    endloop
  endfacet
  facet normal -1.000000 -0.000000 0.000000
    outer loop
      vertex -28.450000 18.800000 -2.650000
      vertex -28.450000 28.450000 2.650000
      vertex -28.450000 28.450000 -2.650000
    endloop
  endfacet
  facet normal -1.000000 -0.000000 0.000000
    outer loop
      vertex -28.450000 -18.800000 -2.650000
      vertex -28.450000 28.450000 2.650000
      vertex -28.450000 18.800000 -2.650000
    endloop
  endfacet
  facet normal -1.000000 0.000000 0.000000
    outer loop
      vertex -28.450000 18.800000 -2.650000
      vertex -28.450000 18.800000 -49.150000
      vertex -28.450000 -18.800000 -2.650000
    endloop
  endfacet
  facet normal -1.000000 0.000000 0.000000
    outer loop
      vertex -28.450000 -18.800000 -2.650000
      vertex -28.450000 18.800000 -49.150000
      vertex -28.450000 -18.800000 -49.150000
    endloop
  endfacet
  facet normal 0.000000 -1.000000 0.000000
    outer loop
      vertex -28.450000 -28.450000 2.650000
      vertex -28.450000 -28.450000 -2.650000
      vertex -18.800000 -28.450000 -2.650000
    endloop
  endfacet
  facet normal 0.000000 -1.000000 0.000000
    outer loop
      vertex 18.800000 -28.450000 -2.650000
      vertex -28.450000 -28.450000 2.650000
      vertex -18.800000 -28.450000 -2.650000
    endloop
  endfacet
  facet normal -0.000000 -1.000000 -0.000000
    outer loop
      vertex -18.800000 -28.450000 -49.150000
      vertex 18.800000 -28.450000 -49.150000
      vertex -18.800000 -28.450000 -2.650000
    endloop
  endfacet
  facet normal 0.000000 -1.000000 0.000000
    outer loop
      vertex 18.800000 -28.450000 -49.150000
      vertex 18.800000 -28.450000 -2.650000
      vertex -18.800000 -28.450000 -2.650000
    endloop
  endfacet
  facet normal -0.000000 -1.000000 -0.000000
    outer loop
      vertex 18.800000 -28.450000 -2.650000
      vertex 28.450000 -28.450000 -2.650000
      vertex -28.450000 -28.450000 2.650000
    endloop
  endfacet
  facet normal 0.000000 -1.000000 0.000000
    outer loop
      vertex 28.450000 -28.450000 -2.650000
      vertex 28.450000 -28.450000 2.650000
      vertex -28.450000 -28.450000 2.650000
    endloop
  endfacet
  facet normal 0.000000 0.000000 -1.000000
    outer loop
      vertex -21.574454 -25.244462 -2.650000
      vertex -18.800000 -28.450000 -2.650000
      vertex -23.117646 -26.135424 -2.650000
    endloop
  endfacet
  facet normal 0.000000 -0.000000 -1.000000
    outer loop
      vertex -23.117646 -21.004576 -2.650000
      vertex -28.450000 -18.800000 -2.650000
      vertex -18.800000 -18.800000 -2.650000
    endloop
  endfacet
  facet normal 0.000000 -0.000000 -1.000000
    outer loop
      vertex -28.450000 -28.450000 -2.650000
      vertex -28.450000 -18.800000 -2.650000
      vertex -26.017899 -22.679038 -2.650000
    endloop
  endfacet
  facet normal 0.000000 0.000000 -1.000000
    outer loop
      vertex -28.450000 -28.450000 -2.650000
      vertex -26.017899 -22.679038 -2.650000
      vertex -26.017899 -24.460962 -2.650000
    endloop
  endfacet
  facet normal 0.000000 0.000000 -1.000000
    outer loop
      vertex -28.450000 -28.450000 -2.650000
      vertex -26.017899 -24.460962 -2.650000
      vertex -24.872500 -25.825996 -2.650000
    endloop
  endfacet
  facet normal -0.000000 0.000000 -1.000000
    outer loop
      vertex -28.450000 -28.450000 -2.650000
      vertex -24.872500 -25.825996 -2.650000
      vertex -18.800000 -28.450000 -2.650000
    endloop
  endfacet
  facet normal 0.000000 0.000000 -1.000000
    outer loop
      vertex -24.872500 -25.825996 -2.650000
      vertex -23.117646 -26.135424 -2.650000
      vertex -18.800000 -28.450000 -2.650000
    endloop
  endfacet
  facet normal 0.000000 0.000000 -1.000000
    outer loop
      vertex -18.800000 -28.450000 -2.650000
      vertex -21.574454 -25.244462 -2.650000
      vertex -18.800000 -18.800000 -2.650000
    endloop
  endfacet
  facet normal 0.000000 0.000000 -1.000000
    outer loop
      vertex -21.574454 -25.244462 -2.650000
      vertex -20.965000 -23.570000 -2.650000
      vertex -18.800000 -18.800000 -2.650000
    endloop
  endfacet
  facet normal 0.000000 -0.000000 -1.000000
    outer loop
      vertex -20.965000 -23.570000 -2.650000
      vertex -21.574454 -21.895538 -2.650000
      vertex -18.800000 -18.800000 -2.650000
    endloop
  endfacet
  facet normal 0.000000 -0.000000 -1.000000
    outer loop
      vertex -21.574454 -21.895538 -2.650000
      vertex -23.117646 -21.004576 -2.650000
      vertex -18.800000 -18.800000 -2.650000
    endloop
  endfacet
  facet normal 0.000000 -0.000000 -1.000000
    outer loop
      vertex -26.017899 -22.679038 -2.650000
      vertex -28.450000 -18.800000 -2.650000
      vertex -24.872500 -21.314004 -2.650000
    endloop
  endfacet
  facet normal 0.000000 -0.000000 -1.000000
    outer loop
      vertex -24.872500 -21.314004 -2.650000
      vertex -28.450000 -18.800000 -2.650000
      vertex -23.117646 -21.004576 -2.650000
    endloop
  endfacet
  facet normal 0.000000 -1.000000 0.000000
    outer loop
      vertex -28.450000 -18.800000 -2.650000
      vertex -28.450000 -18.800000 -49.150000
      vertex -18.800000 -18.800000 -49.150000
    endloop
  endfacet
  facet normal 0.000000 -1.000000 0.000000
    outer loop
      vertex -18.800000 -18.800000 -2.650000
      vertex -28.450000 -18.800000 -2.650000
      vertex -18.800000 -18.800000 -49.150000
    endloop
  endfacet
  facet normal -0.000000 -0.000000 -1.000000
    outer loop
      vertex -28.450000 -18.800000 -49.150000
      vertex -28.450000 18.800000 -49.150000
      vertex -18.800000 -18.800000 -49.150000
    endloop
  endfacet
  facet normal 0.000000 0.000000 -1.000000
    outer loop
      vertex -18.800000 -18.800000 -49.150000
      vertex -28.450000 18.800000 -49.150000
      vertex -18.800000 18.800000 -49.150000
    endloop
  endfacet
  facet normal 0.000000 -0.000000 -1.000000
    outer loop
      vertex -18.800000 18.800000 -49.150000
      vertex -18.800000 28.450000 -49.150000
      vertex 18.800000 28.450000 -49.150000
    endloop
  endfacet
  facet normal -0.000000 0.000000 -1.000000
    outer loop
      vertex -18.800000 18.800000 -49.150000
      vertex 18.800000 28.450000 -49.150000
      vertex -18.800000 -18.800000 -49.150000
    endloop
  endfacet
  facet normal 0.000000 0.000000 -1.000000
    outer loop
      vertex -18.800000 -18.800000 -49.150000
      vertex 18.800000 28.450000 -49.150000
      vertex 18.800000 18.800000 -49.150000
    endloop
  endfacet
  facet normal 0.000000 0.000000 -1.000000
    outer loop
      vertex -18.800000 -18.800000 -49.150000
      vertex 18.800000 18.800000 -49.150000
      vertex 28.450000 18.800000 -49.150000
    endloop
  endfacet
  facet normal -0.000000 0.000000 -1.000000
    outer loop
      vertex 18.800000 -18.800000 -49.150000
      vertex 28.450000 18.800000 -49.150000
      vertex 28.450000 -18.800000 -49.150000
    endloop
  endfacet
  facet normal -0.000000 0.000000 -1.000000
    outer loop
      vertex -18.800000 -18.800000 -49.150000
      vertex 28.450000 18.800000 -49.150000
      vertex 18.800000 -18.800000 -49.150000
    endloop
  endfacet
  facet normal 0.000000 0.000000 -1.000000
    outer loop
      vertex 18.800000 -18.800000 -49.150000
      vertex 18.800000 -28.450000 -49.150000
      vertex -18.800000 -18.800000 -49.150000
    endloop
  endfacet
  facet normal 0.000000 0.000000 -1.000000
    outer loop
      vertex -18.800000 -18.800000 -49.150000
      vertex 18.800000 -28.450000 -49.150000
      vertex -18.800000 -28.450000 -49.150000
    endloop
  endfacet
  facet normal 0.000000 1.000000 0.000000
    outer loop
      vertex -28.450000 18.800000 -49.150000
      vertex -28.450000 18.800000 -2.650000
      vertex -18.800000 18.800000 -49.150000
    endloop
  endfacet
  facet normal 0.000000 1.000000 0.000000
    outer loop
      vertex -18.800000 18.800000 -49.150000
      vertex -28.450000 18.800000 -2.650000
      vertex -18.800000 18.800000 -2.650000
    endloop
  endfacet
  facet normal 0.000000 0.000000 -1.000000
    outer loop
      vertex -21.574454 21.895538 -2.650000
      vertex -18.800000 18.800000 -2.650000
      vertex -23.117646 21.004576 -2.650000
    endloop
  endfacet
  facet normal 0.000000 -0.000000 -1.000000
    outer loop
      vertex -23.117646 26.135424 -2.650000
      vertex -28.450000 28.450000 -2.650000
      vertex -18.800000 28.450000 -2.650000
    endloop
  endfacet
  facet normal 0.000000 -0.000000 -1.000000
    outer loop
      vertex -28.450000 18.800000 -2.650000
      vertex -28.450000 28.450000 -2.650000
      vertex -26.017899 24.460962 -2.650000
    endloop
  endfacet
  facet normal 0.000000 0.000000 -1.000000
    outer loop
      vertex -28.450000 18.800000 -2.650000
      vertex -26.017899 24.460962 -2.650000
      vertex -26.017899 22.679038 -2.650000
    endloop
  endfacet
  facet normal 0.000000 0.000000 -1.000000
    outer loop
      vertex -28.450000 18.800000 -2.650000
      vertex -26.017899 22.679038 -2.650000
      vertex -24.872500 21.314004 -2.650000
    endloop
  endfacet
  facet normal -0.000000 0.000000 -1.000000
    outer loop
      vertex -28.450000 18.800000 -2.650000
      vertex -24.872500 21.314004 -2.650000
      vertex -18.800000 18.800000 -2.650000
    endloop
  endfacet
  facet normal 0.000000 0.000000 -1.000000
    outer loop
      vertex -24.872500 21.314004 -2.650000
      vertex -23.117646 21.004576 -2.650000
      vertex -18.800000 18.800000 -2.650000
    endloop
  endfacet
  facet normal 0.000000 0.000000 -1.000000
    outer loop
      vertex -18.800000 18.800000 -2.650000
      vertex -21.574454 21.895538 -2.650000
      vertex -18.800000 28.450000 -2.650000
    endloop
  endfacet
  facet normal 0.000000 0.000000 -1.000000
    outer loop
      vertex -21.574454 21.895538 -2.650000
      vertex -20.965000 23.570000 -2.650000
      vertex -18.800000 28.450000 -2.650000
    endloop
  endfacet
  facet normal 0.000000 -0.000000 -1.000000
    outer loop
      vertex -20.965000 23.570000 -2.650000
      vertex -21.574454 25.244462 -2.650000
      vertex -18.800000 28.450000 -2.650000
    endloop
  endfacet
  facet normal 0.000000 -0.000000 -1.000000
    outer loop
      vertex -21.574454 25.244462 -2.650000
      vertex -23.117646 26.135424 -2.650000
      vertex -18.800000 28.450000 -2.650000
    endloop
  endfacet
  facet normal 0.000000 -0.000000 -1.000000
    outer loop
      vertex -26.017899 24.460962 -2.650000
      vertex -28.450000 28.450000 -2.650000
      vertex -24.872500 25.825996 -2.650000
    endloop
  endfacet
  facet normal 0.000000 -0.000000 -1.000000
    outer loop
      vertex -24.872500 25.825996 -2.650000
      vertex -28.450000 28.450000 -2.650000
      vertex -23.117646 26.135424 -2.650000
    endloop
  endfacet
  facet normal 0.000000 1.000000 0.000000
    outer loop
      vertex -28.450000 28.450000 -2.650000
      vertex -28.450000 28.450000 2.650000
      vertex -18.800000 28.450000 -2.650000
    endloop
  endfacet
  facet normal 0.000000 1.000000 0.000000
    outer loop
      vertex -18.800000 28.450000 -2.650000
      vertex -28.450000 28.450000 2.650000
      vertex 28.450000 28.450000 2.650000
    endloop
  endfacet
  facet normal 0.000000 1.000000 0.000000
    outer loop
      vertex 18.800000 28.450000 -2.650000
      vertex 28.450000 28.450000 2.650000
      vertex 28.450000 28.450000 -2.650000
    endloop
  endfacet
  facet normal 0.000000 1.000000 0.000000
    outer loop
      vertex -18.800000 28.450000 -2.650000
      vertex 28.450000 28.450000 2.650000
      vertex 18.800000 28.450000 -2.650000
    endloop
  endfacet
  facet normal 0.000000 1.000000 0.000000
    outer loop
      vertex 18.800000 28.450000 -2.650000
      vertex 18.800000 28.450000 -49.150000
      vertex -18.800000 28.450000 -2.650000
    endloop
  endfacet
  facet normal 0.000000 1.000000 -0.000000
    outer loop
      vertex -18.800000 28.450000 -2.650000
      vertex 18.800000 28.450000 -49.150000
      vertex -18.800000 28.450000 -49.150000
    endloop
  endfacet
  facet normal 0.000000 -0.000000 1.000000
    outer loop
      vertex -23.117646 -26.135424 2.650000
      vertex -28.450000 -28.450000 2.650000
      vertex 28.450000 -28.450000 2.650000
    endloop
  endfacet
  facet normal 0.000000 0.000000 1.000000
    outer loop
      vertex -23.117646 26.135424 2.650000
      vertex -21.574454 25.244462 2.650000
      vertex 28.450000 28.450000 2.650000
    endloop
  endfacet
  facet normal -0.000000 0.000000 1.000000
    outer loop
      vertex -23.117646 -26.135424 2.650000
      vertex -24.872500 -25.825996 2.650000
      vertex -28.450000 -28.450000 2.650000
    endloop
  endfacet
  facet normal 0.000000 -0.000000 1.000000
    outer loop
      vertex -28.450000 28.450000 2.650000
      vertex -28.450000 -28.450000 2.650000
      vertex -26.017899 -24.460962 2.650000
    endloop
  endfacet
  facet normal 0.000000 -0.000000 1.000000
    outer loop
      vertex -20.965000 -23.570000 2.650000
      vertex -21.574454 -25.244462 2.650000
      vertex 28.450000 -28.450000 2.650000
    endloop
  endfacet
  facet normal 0.000000 0.000000 1.000000
    outer loop
      vertex -28.450000 28.450000 2.650000
      vertex -26.017899 -24.460962 2.650000
      vertex -26.017899 -22.679038 2.650000
    endloop
  endfacet
  facet normal 0.000000 0.000000 1.000000
    outer loop
      vertex -21.574454 -21.895538 2.650000
      vertex -20.965000 -23.570000 2.650000
      vertex 28.450000 -28.450000 2.650000
    endloop
  endfacet
  facet normal 0.000000 0.000000 1.000000
    outer loop
      vertex -28.450000 28.450000 2.650000
      vertex -26.017899 -22.679038 2.650000
      vertex -24.872500 -21.314004 2.650000
    endloop
  endfacet
  facet normal 0.000000 -0.000000 1.000000
    outer loop
      vertex 1.991267 -18.945642 2.650000
      vertex -23.117646 -21.004576 2.650000
      vertex 28.450000 -28.450000 2.650000
    endloop
  endfacet
  facet normal 0.000000 0.000000 1.000000
    outer loop
      vertex -28.450000 28.450000 2.650000
      vertex -24.872500 -21.314004 2.650000
      vertex -23.117646 -21.004576 2.650000
    endloop
  endfacet
  facet normal 0.000000 -0.000000 1.000000
    outer loop
      vertex -21.574454 -25.244462 2.650000
      vertex -23.117646 -26.135424 2.650000
      vertex 28.450000 -28.450000 2.650000
    endloop
  endfacet
  facet normal 0.000000 -0.000000 1.000000
    outer loop
      vertex -26.017899 -24.460962 2.650000
      vertex -28.450000 -28.450000 2.650000
      vertex -24.872500 -25.825996 2.650000
    endloop
  endfacet
  facet normal 0.000000 0.000000 1.000000
    outer loop
      vertex -28.450000 28.450000 2.650000
      vertex -23.117646 -21.004576 2.650000
      vertex -26.017899 22.679038 2.650000
    endloop
  endfacet
  facet normal 0.000000 -0.000000 1.000000
    outer loop
      vertex -20.965000 23.570000 2.650000
      vertex -21.574454 21.895538 2.650000
      vertex -12.746938 14.156909 2.650000
    endloop
  endfacet
  facet normal 0.000000 0.000000 1.000000
    outer loop
      vertex -28.450000 28.450000 2.650000
      vertex -26.017899 22.679038 2.650000
      vertex -26.017899 24.460962 2.650000
    endloop
  endfacet
  facet normal -0.000000 0.000000 1.000000
    outer loop
      vertex -23.117646 26.135424 2.650000
      vertex -28.450000 28.450000 2.650000
      vertex -24.872500 25.825996 2.650000
    endloop
  endfacet
  facet normal 0.000000 0.000000 1.000000
    outer loop
      vertex 24.022354 -21.004576 2.650000
      vertex 18.633712 -3.960718 2.650000
      vertex 17.403041 -7.748333 2.650000
    endloop
  endfacet
  facet normal 0.000000 0.000000 1.000000
    outer loop
      vertex 28.450000 28.450000 2.650000
      vertex -28.450000 28.450000 2.650000
      vertex -23.117646 26.135424 2.650000
    endloop
  endfacet
  facet normal 0.000000 0.000000 1.000000
    outer loop
      vertex 18.633712 3.960718 2.650000
      vertex 19.050000 0.000000 2.650000
      vertex 28.450000 -28.450000 2.650000
    endloop
  endfacet
  facet normal 0.000000 0.000000 1.000000
    outer loop
      vertex -26.017899 22.679038 2.650000
      vertex -23.117646 -21.004576 2.650000
      vertex -24.872500 21.314004 2.650000
    endloop
  endfacet
  facet normal -0.000000 0.000000 1.000000
    outer loop
      vertex -1.991267 -18.945642 2.650000
      vertex -5.886774 -18.117627 2.650000
      vertex -23.117646 -21.004576 2.650000
    endloop
  endfacet
  facet normal 0.000000 0.000000 1.000000
    outer loop
      vertex -24.872500 21.314004 2.650000
      vertex -23.117646 -21.004576 2.650000
      vertex -18.633712 -3.960718 2.650000
    endloop
  endfacet
  facet normal 0.000000 0.000000 1.000000
    outer loop
      vertex -24.872500 21.314004 2.650000
      vertex -18.633712 -3.960718 2.650000
      vertex -19.050000 0.000000 2.650000
    endloop
  endfacet
  facet normal 0.000000 0.000000 1.000000
    outer loop
      vertex -24.872500 21.314004 2.650000
      vertex -19.050000 0.000000 2.650000
      vertex -18.633712 3.960718 2.650000
    endloop
  endfacet
  facet normal 0.000000 0.000000 1.000000
    outer loop
      vertex -24.872500 21.314004 2.650000
      vertex -18.633712 3.960718 2.650000
      vertex -17.403041 7.748333 2.650000
    endloop
  endfacet
  facet normal 0.000000 -0.000000 1.000000
    outer loop
      vertex 9.525000 -16.497784 2.650000
      vertex 5.886774 -18.117627 2.650000
      vertex 21.122101 -24.460962 2.650000
    endloop
  endfacet
  facet normal 0.000000 0.000000 1.000000
    outer loop
      vertex -24.872500 21.314004 2.650000
      vertex -17.403041 7.748333 2.650000
      vertex -15.411774 11.197309 2.650000
    endloop
  endfacet
  facet normal 0.000000 -0.000000 1.000000
    outer loop
      vertex 26.175000 -23.570000 2.650000
      vertex 25.565546 -25.244462 2.650000
      vertex 28.450000 -28.450000 2.650000
    endloop
  endfacet
  facet normal 0.000000 0.000000 1.000000
    outer loop
      vertex -15.411774 11.197309 2.650000
      vertex -23.117646 21.004576 2.650000
      vertex -24.872500 21.314004 2.650000
    endloop
  endfacet
  facet normal 0.000000 -0.000000 1.000000
    outer loop
      vertex 12.746938 -14.156909 2.650000
      vertex 9.525000 -16.497784 2.650000
      vertex 21.122101 -22.679038 2.650000
    endloop
  endfacet
  facet normal -0.000000 0.000000 1.000000
    outer loop
      vertex -5.886774 18.117627 2.650000
      vertex -21.574454 25.244462 2.650000
      vertex -9.525000 16.497784 2.650000
    endloop
  endfacet
  facet normal 0.000000 0.000000 1.000000
    outer loop
      vertex 28.450000 28.450000 2.650000
      vertex -21.574454 25.244462 2.650000
      vertex -5.886774 18.117627 2.650000
    endloop
  endfacet
  facet normal 0.000000 0.000000 1.000000
    outer loop
      vertex 28.450000 28.450000 2.650000
      vertex -5.886774 18.117627 2.650000
      vertex -1.991267 18.945642 2.650000
    endloop
  endfacet
  facet normal 0.000000 0.000000 1.000000
    outer loop
      vertex 25.565546 25.244462 2.650000
      vertex 26.175000 23.570000 2.650000
      vertex 28.450000 28.450000 2.650000
    endloop
  endfacet
  facet normal 0.000000 0.000000 1.000000
    outer loop
      vertex 22.267500 25.825996 2.650000
      vertex 1.991267 18.945642 2.650000
      vertex 5.886774 18.117627 2.650000
    endloop
  endfacet
  facet normal 0.000000 -0.000000 1.000000
    outer loop
      vertex 15.411774 -11.197309 2.650000
      vertex 12.746938 -14.156909 2.650000
      vertex 22.267500 -21.314004 2.650000
    endloop
  endfacet
  facet normal 0.000000 0.000000 1.000000
    outer loop
      vertex 21.122101 24.460962 2.650000
      vertex 5.886774 18.117627 2.650000
      vertex 9.525000 16.497784 2.650000
    endloop
  endfacet
  facet normal 0.000000 0.000000 1.000000
    outer loop
      vertex 21.122101 22.679038 2.650000
      vertex 9.525000 16.497784 2.650000
      vertex 12.746938 14.156909 2.650000
    endloop
  endfacet
  facet normal 0.000000 -0.000000 1.000000
    outer loop
      vertex 19.050000 0.000000 2.650000
      vertex 18.633712 -3.960718 2.650000
      vertex 28.450000 -28.450000 2.650000
    endloop
  endfacet
  facet normal 0.000000 0.000000 1.000000
    outer loop
      vertex 22.267500 21.314004 2.650000
      vertex 12.746938 14.156909 2.650000
      vertex 15.411774 11.197309 2.650000
    endloop
  endfacet
  facet normal 0.000000 0.000000 1.000000
    outer loop
      vertex 18.633712 -3.960718 2.650000
      vertex 25.565546 -21.895538 2.650000
      vertex 28.450000 -28.450000 2.650000
    endloop
  endfacet
  facet normal 0.000000 0.000000 1.000000
    outer loop
      vertex 24.022354 21.004576 2.650000
      vertex 15.411774 11.197309 2.650000
      vertex 17.403041 7.748333 2.650000
    endloop
  endfacet
  facet normal 0.000000 0.000000 1.000000
    outer loop
      vertex 28.450000 28.450000 2.650000
      vertex 18.633712 3.960718 2.650000
      vertex 28.450000 -28.450000 2.650000
    endloop
  endfacet
  facet normal 0.000000 -0.000000 1.000000
    outer loop
      vertex 25.565546 -25.244462 2.650000
      vertex 24.022354 -26.135424 2.650000
      vertex 28.450000 -28.450000 2.650000
    endloop
  endfacet
  facet normal 0.000000 0.000000 1.000000
    outer loop
      vertex -12.746938 14.156909 2.650000
      vertex -21.574454 25.244462 2.650000
      vertex -20.965000 23.570000 2.650000
    endloop
  endfacet
  facet normal 0.000000 0.000000 1.000000
    outer loop
      vertex -12.746938 14.156909 2.650000
      vertex -9.525000 16.497784 2.650000
      vertex -21.574454 25.244462 2.650000
    endloop
  endfacet
  facet normal -0.000000 -0.000000 1.000000
    outer loop
      vertex 24.022354 -26.135424 2.650000
      vertex 22.267500 -25.825996 2.650000
      vertex 28.450000 -28.450000 2.650000
    endloop
  endfacet
  facet normal -0.000000 -0.000000 1.000000
    outer loop
      vertex 22.267500 -25.825996 2.650000
      vertex 1.991267 -18.945642 2.650000
      vertex 28.450000 -28.450000 2.650000
    endloop
  endfacet
  facet normal 0.000000 -0.000000 1.000000
    outer loop
      vertex -1.991267 -18.945642 2.650000
      vertex -23.117646 -21.004576 2.650000
      vertex 1.991267 -18.945642 2.650000
    endloop
  endfacet
  facet normal 0.000000 -0.000000 1.000000
    outer loop
      vertex -9.525000 -16.497784 2.650000
      vertex -23.117646 -21.004576 2.650000
      vertex -5.886774 -18.117627 2.650000
    endloop
  endfacet
  facet normal 0.000000 -0.000000 1.000000
    outer loop
      vertex -12.746938 -14.156909 2.650000
      vertex -23.117646 -21.004576 2.650000
      vertex -9.525000 -16.497784 2.650000
    endloop
  endfacet
  facet normal 0.000000 -0.000000 1.000000
    outer loop
      vertex -15.411774 -11.197309 2.650000
      vertex -23.117646 -21.004576 2.650000
      vertex -12.746938 -14.156909 2.650000
    endloop
  endfacet
  facet normal 0.000000 -0.000000 1.000000
    outer loop
      vertex -17.403041 -7.748333 2.650000
      vertex -23.117646 -21.004576 2.650000
      vertex -15.411774 -11.197309 2.650000
    endloop
  endfacet
  facet normal 0.000000 -0.000000 1.000000
    outer loop
      vertex -18.633712 -3.960718 2.650000
      vertex -23.117646 -21.004576 2.650000
      vertex -17.403041 -7.748333 2.650000
    endloop
  endfacet
  facet normal 0.000000 0.000000 1.000000
    outer loop
      vertex 24.022354 -21.004576 2.650000
      vertex 25.565546 -21.895538 2.650000
      vertex 18.633712 -3.960718 2.650000
    endloop
  endfacet
  facet normal 0.000000 0.000000 1.000000
    outer loop
      vertex 21.122101 -24.460962 2.650000
      vertex 21.122101 -22.679038 2.650000
      vertex 9.525000 -16.497784 2.650000
    endloop
  endfacet
  facet normal -0.000000 0.000000 1.000000
    outer loop
      vertex 22.267500 21.314004 2.650000
      vertex 21.122101 22.679038 2.650000
      vertex 12.746938 14.156909 2.650000
    endloop
  endfacet
  facet normal 0.000000 0.000000 1.000000
    outer loop
      vertex 22.267500 -21.314004 2.650000
      vertex 24.022354 -21.004576 2.650000
      vertex 15.411774 -11.197309 2.650000
    endloop
  endfacet
  facet normal 0.000000 0.000000 1.000000
    outer loop
      vertex 25.565546 -21.895538 2.650000
      vertex 26.175000 -23.570000 2.650000
      vertex 28.450000 -28.450000 2.650000
    endloop
  endfacet
  facet normal 0.000000 -0.000000 1.000000
    outer loop
      vertex 17.403041 -7.748333 2.650000
      vertex 15.411774 -11.197309 2.650000
      vertex 24.022354 -21.004576 2.650000
    endloop
  endfacet
  facet normal 0.000000 0.000000 1.000000
    outer loop
      vertex -1.991267 18.945642 2.650000
      vertex 1.991267 18.945642 2.650000
      vertex 28.450000 28.450000 2.650000
    endloop
  endfacet
  facet normal 0.000000 0.000000 1.000000
    outer loop
      vertex 22.267500 -25.825996 2.650000
      vertex 21.122101 -24.460962 2.650000
      vertex 5.886774 -18.117627 2.650000
    endloop
  endfacet
  facet normal 0.000000 0.000000 1.000000
    outer loop
      vertex 21.122101 -22.679038 2.650000
      vertex 22.267500 -21.314004 2.650000
      vertex 12.746938 -14.156909 2.650000
    endloop
  endfacet
  facet normal 0.000000 -0.000000 1.000000
    outer loop
      vertex 5.886774 -18.117627 2.650000
      vertex 1.991267 -18.945642 2.650000
      vertex 22.267500 -25.825996 2.650000
    endloop
  endfacet
  facet normal 0.000000 0.000000 1.000000
    outer loop
      vertex 22.267500 25.825996 2.650000
      vertex 24.022354 26.135424 2.650000
      vertex 28.450000 28.450000 2.650000
    endloop
  endfacet
  facet normal 0.000000 0.000000 1.000000
    outer loop
      vertex 24.022354 26.135424 2.650000
      vertex 25.565546 25.244462 2.650000
      vertex 28.450000 28.450000 2.650000
    endloop
  endfacet
  facet normal 0.000000 0.000000 1.000000
    outer loop
      vertex 28.450000 28.450000 2.650000
      vertex 1.991267 18.945642 2.650000
      vertex 22.267500 25.825996 2.650000
    endloop
  endfacet
  facet normal -0.000000 0.000000 1.000000
    outer loop
      vertex 21.122101 22.679038 2.650000
      vertex 21.122101 24.460962 2.650000
      vertex 9.525000 16.497784 2.650000
    endloop
  endfacet
  facet normal -0.000000 0.000000 1.000000
    outer loop
      vertex 24.022354 21.004576 2.650000
      vertex 22.267500 21.314004 2.650000
      vertex 15.411774 11.197309 2.650000
    endloop
  endfacet
  facet normal 0.000000 0.000000 1.000000
    outer loop
      vertex 28.450000 28.450000 2.650000
      vertex 25.565546 21.895538 2.650000
      vertex 18.633712 3.960718 2.650000
    endloop
  endfacet
  facet normal 0.000000 0.000000 1.000000
    outer loop
      vertex 28.450000 28.450000 2.650000
      vertex 26.175000 23.570000 2.650000
      vertex 25.565546 21.895538 2.650000
    endloop
  endfacet
  facet normal 0.000000 0.000000 1.000000
    outer loop
      vertex 25.565546 21.895538 2.650000
      vertex 17.403041 7.748333 2.650000
      vertex 18.633712 3.960718 2.650000
    endloop
  endfacet
  facet normal 0.000000 0.000000 1.000000
    outer loop
      vertex 25.565546 21.895538 2.650000
      vertex 24.022354 21.004576 2.650000
      vertex 17.403041 7.748333 2.650000
    endloop
  endfacet
  facet normal -0.000000 0.000000 1.000000
    outer loop
      vertex 21.122101 24.460962 2.650000
      vertex 22.267500 25.825996 2.650000
      vertex 5.886774 18.117627 2.650000
    endloop
  endfacet
  facet normal 0.000000 0.000000 1.000000
    outer loop
      vertex -23.117646 -21.004576 2.650000
      vertex -21.574454 -21.895538 2.650000
      vertex 28.450000 -28.450000 2.650000
    endloop
  endfacet
  facet normal 0.000000 0.000000 1.000000
    outer loop
      vertex -26.017899 24.460962 2.650000
      vertex -24.872500 25.825996 2.650000
      vertex -28.450000 28.450000 2.650000
    endloop
  endfacet
  facet normal 0.000000 0.000000 1.000000
    outer loop
      vertex -15.411774 11.197309 2.650000
      vertex -21.574454 21.895538 2.650000
      vertex -23.117646 21.004576 2.650000
    endloop
  endfacet
  facet normal 0.000000 0.000000 1.000000
    outer loop
      vertex -15.411774 11.197309 2.650000
      vertex -12.746938 14.156909 2.650000
      vertex -21.574454 21.895538 2.650000
    endloop
  endfacet
  facet normal 1.000000 0.000000 -0.000000
    outer loop
      vertex 28.450000 -28.450000 2.650000
      vertex 28.450000 -28.450000 -2.650000
      vertex 28.450000 -18.800000 -2.650000
    endloop
  endfacet
  facet normal 1.000000 -0.000000 0.000000
    outer loop
      vertex 28.450000 18.800000 -2.650000
      vertex 28.450000 -28.450000 2.650000
      vertex 28.450000 -18.800000 -2.650000
    endloop
  endfacet
  facet normal 1.000000 0.000000 0.000000
    outer loop
      vertex 28.450000 -18.800000 -49.150000
      vertex 28.450000 18.800000 -49.150000
      vertex 28.450000 -18.800000 -2.650000
    endloop
  endfacet
  facet normal 1.000000 0.000000 0.000000
    outer loop
      vertex 28.450000 18.800000 -49.150000
      vertex 28.450000 18.800000 -2.650000
      vertex 28.450000 -18.800000 -2.650000
    endloop
  endfacet
  facet normal 1.000000 0.000000 0.000000
    outer loop
      vertex 28.450000 18.800000 -2.650000
      vertex 28.450000 28.450000 -2.650000
      vertex 28.450000 -28.450000 2.650000
    endloop
  endfacet
  facet normal 1.000000 0.000000 0.000000
    outer loop
      vertex 28.450000 28.450000 -2.650000
      vertex 28.450000 28.450000 2.650000
      vertex 28.450000 -28.450000 2.650000
    endloop
  endfacet
  facet normal 0.000000 0.000000 -1.000000
    outer loop
      vertex 25.565546 -25.244462 -2.650000
      vertex 28.450000 -28.450000 -2.650000
      vertex 24.022354 -26.135424 -2.650000
    endloop
  endfacet
  facet normal 0.000000 -0.000000 -1.000000
    outer loop
      vertex 24.022354 -21.004576 -2.650000
      vertex 18.800000 -18.800000 -2.650000
      vertex 28.450000 -18.800000 -2.650000
    endloop
  endfacet
  facet normal 0.000000 -0.000000 -1.000000
    outer loop
      vertex 18.800000 -28.450000 -2.650000
      vertex 18.800000 -18.800000 -2.650000
      vertex 21.122101 -22.679038 -2.650000
    endloop
  endfacet
  facet normal 0.000000 0.000000 -1.000000
    outer loop
      vertex 18.800000 -28.450000 -2.650000
      vertex 21.122101 -22.679038 -2.650000
      vertex 21.122101 -24.460962 -2.650000
    endloop
  endfacet
  facet normal 0.000000 0.000000 -1.000000
    outer loop
      vertex 18.800000 -28.450000 -2.650000
      vertex 21.122101 -24.460962 -2.650000
      vertex 22.267500 -25.825996 -2.650000
    endloop
  endfacet
  facet normal -0.000000 0.000000 -1.000000
    outer loop
      vertex 18.800000 -28.450000 -2.650000
      vertex 22.267500 -25.825996 -2.650000
      vertex 28.450000 -28.450000 -2.650000
    endloop
  endfacet
  facet normal 0.000000 0.000000 -1.000000
    outer loop
      vertex 22.267500 -25.825996 -2.650000
      vertex 24.022354 -26.135424 -2.650000
      vertex 28.450000 -28.450000 -2.650000
    endloop
  endfacet
  facet normal 0.000000 0.000000 -1.000000
    outer loop
      vertex 28.450000 -28.450000 -2.650000
      vertex 25.565546 -25.244462 -2.650000
      vertex 28.450000 -18.800000 -2.650000
    endloop
  endfacet
  facet normal 0.000000 0.000000 -1.000000
    outer loop
      vertex 25.565546 -25.244462 -2.650000
      vertex 26.175000 -23.570000 -2.650000
      vertex 28.450000 -18.800000 -2.650000
    endloop
  endfacet
  facet normal 0.000000 -0.000000 -1.000000
    outer loop
      vertex 26.175000 -23.570000 -2.650000
      vertex 25.565546 -21.895538 -2.650000
      vertex 28.450000 -18.800000 -2.650000
    endloop
  endfacet
  facet normal 0.000000 -0.000000 -1.000000
    outer loop
      vertex 25.565546 -21.895538 -2.650000
      vertex 24.022354 -21.004576 -2.650000
      vertex 28.450000 -18.800000 -2.650000
    endloop
  endfacet
  facet normal 0.000000 -0.000000 -1.000000
    outer loop
      vertex 21.122101 -22.679038 -2.650000
      vertex 18.800000 -18.800000 -2.650000
      vertex 22.267500 -21.314004 -2.650000
    endloop
  endfacet
  facet normal 0.000000 -0.000000 -1.000000
    outer loop
      vertex 22.267500 -21.314004 -2.650000
      vertex 18.800000 -18.800000 -2.650000
      vertex 24.022354 -21.004576 -2.650000
    endloop
  endfacet
  facet normal 1.000000 0.000000 -0.000000
    outer loop
      vertex 18.800000 -28.450000 -2.650000
      vertex 18.800000 -28.450000 -49.150000
      vertex 18.800000 -18.800000 -49.150000
    endloop
  endfacet
  facet normal 1.000000 0.000000 0.000000
    outer loop
      vertex 18.800000 -18.800000 -2.650000
      vertex 18.800000 -28.450000 -2.650000
      vertex 18.800000 -18.800000 -49.150000
    endloop
  endfacet
  facet normal -1.000000 -0.000000 -0.000000
    outer loop
      vertex -18.800000 -28.450000 -49.150000
      vertex -18.800000 -28.450000 -2.650000
      vertex -18.800000 -18.800000 -49.150000
    endloop
  endfacet
  facet normal -1.000000 0.000000 0.000000
    outer loop
      vertex -18.800000 -18.800000 -49.150000
      vertex -18.800000 -28.450000 -2.650000
      vertex -18.800000 -18.800000 -2.650000
    endloop
  endfacet
  facet normal 0.766045 -0.642787 0.000000
    outer loop
      vertex -24.872500 -21.314004 -2.650000
      vertex -24.872500 -21.314004 2.650000
      vertex -26.017899 -22.679038 2.650000
    endloop
  endfacet
  facet normal 0.766045 -0.642787 0.000000
    outer loop
      vertex -26.017899 -22.679038 -2.650000
      vertex -24.872500 -21.314004 -2.650000
      vertex -26.017899 -22.679038 2.650000
    endloop
  endfacet
  facet normal 1.000000 0.000000 0.000000
    outer loop
      vertex -26.017899 -22.679038 -2.650000
      vertex -26.017899 -22.679038 2.650000
      vertex -26.017899 -24.460962 2.650000
    endloop
  endfacet
  facet normal 1.000000 0.000000 0.000000
    outer loop
      vertex -26.017899 -24.460962 -2.650000
      vertex -26.017899 -22.679038 -2.650000
      vertex -26.017899 -24.460962 2.650000
    endloop
  endfacet
  facet normal 0.173648 -0.984808 0.000000
    outer loop
      vertex -23.117646 -21.004576 -2.650000
      vertex -23.117646 -21.004576 2.650000
      vertex -24.872500 -21.314004 2.650000
    endloop
  endfacet
  facet normal 0.173648 -0.984808 0.000000
    outer loop
      vertex -24.872500 -21.314004 -2.650000
      vertex -23.117646 -21.004576 -2.650000
      vertex -24.872500 -21.314004 2.650000
    endloop
  endfacet
  facet normal -0.500000 -0.866025 -0.000000
    outer loop
      vertex -21.574454 -21.895538 -2.650000
      vertex -21.574454 -21.895538 2.650000
      vertex -23.117646 -21.004576 2.650000
    endloop
  endfacet
  facet normal -0.500000 -0.866025 -0.000000
    outer loop
      vertex -23.117646 -21.004576 -2.650000
      vertex -21.574454 -21.895538 -2.650000
      vertex -23.117646 -21.004576 2.650000
    endloop
  endfacet
  facet normal -0.939693 -0.342020 0.000000
    outer loop
      vertex -20.965000 -23.570000 2.650000
      vertex -21.574454 -21.895538 2.650000
      vertex -20.965000 -23.570000 -2.650000
    endloop
  endfacet
  facet normal -0.939693 -0.342020 0.000000
    outer loop
      vertex -20.965000 -23.570000 -2.650000
      vertex -21.574454 -21.895538 2.650000
      vertex -21.574454 -21.895538 -2.650000
    endloop
  endfacet
  facet normal -0.939693 0.342020 0.000000
    outer loop
      vertex -20.965000 -23.570000 2.650000
      vertex -20.965000 -23.570000 -2.650000
      vertex -21.574454 -25.244462 2.650000
    endloop
  endfacet
  facet normal -0.939693 0.342020 0.000000
    outer loop
      vertex -21.574454 -25.244462 2.650000
      vertex -20.965000 -23.570000 -2.650000
      vertex -21.574454 -25.244462 -2.650000
    endloop
  endfacet
  facet normal -0.500000 0.866025 0.000000
    outer loop
      vertex -21.574454 -25.244462 2.650000
      vertex -21.574454 -25.244462 -2.650000
      vertex -23.117646 -26.135424 2.650000
    endloop
  endfacet
  facet normal -0.500000 0.866025 0.000000
    outer loop
      vertex -23.117646 -26.135424 2.650000
      vertex -21.574454 -25.244462 -2.650000
      vertex -23.117646 -26.135424 -2.650000
    endloop
  endfacet
  facet normal 0.173648 0.984808 -0.000000
    outer loop
      vertex -23.117646 -26.135424 2.650000
      vertex -23.117646 -26.135424 -2.650000
      vertex -24.872500 -25.825996 2.650000
    endloop
  endfacet
  facet normal 0.173648 0.984808 -0.000000
    outer loop
      vertex -24.872500 -25.825996 2.650000
      vertex -23.117646 -26.135424 -2.650000
      vertex -24.872500 -25.825996 -2.650000
    endloop
  endfacet
  facet normal 0.766045 0.642787 0.000000
    outer loop
      vertex -26.017899 -24.460962 2.650000
      vertex -24.872500 -25.825996 2.650000
      vertex -24.872500 -25.825996 -2.650000
    endloop
  endfacet
  facet normal 0.766045 0.642787 0.000000
    outer loop
      vertex -26.017899 -24.460962 -2.650000
      vertex -26.017899 -24.460962 2.650000
      vertex -24.872500 -25.825996 -2.650000
    endloop
  endfacet
  facet normal 0.000000 -1.000000 0.000000
    outer loop
      vertex 18.800000 -18.800000 -2.650000
      vertex 18.800000 -18.800000 -49.150000
      vertex 28.450000 -18.800000 -49.150000
    endloop
  endfacet
  facet normal 0.000000 -1.000000 0.000000
    outer loop
      vertex 28.450000 -18.800000 -2.650000
      vertex 18.800000 -18.800000 -2.650000
      vertex 28.450000 -18.800000 -49.150000
    endloop
  endfacet
  facet normal 0.000000 1.000000 0.000000
    outer loop
      vertex 18.800000 18.800000 -49.150000
      vertex 18.800000 18.800000 -2.650000
      vertex 28.450000 18.800000 -49.150000
    endloop
  endfacet
  facet normal 0.000000 1.000000 0.000000
    outer loop
      vertex 28.450000 18.800000 -49.150000
      vertex 18.800000 18.800000 -2.650000
      vertex 28.450000 18.800000 -2.650000
    endloop
  endfacet
  facet normal 1.000000 0.000000 -0.000000
    outer loop
      vertex 18.800000 18.800000 -2.650000
      vertex 18.800000 18.800000 -49.150000
      vertex 18.800000 28.450000 -49.150000
    endloop
  endfacet
  facet normal 1.000000 0.000000 0.000000
    outer loop
      vertex 18.800000 28.450000 -2.650000
      vertex 18.800000 18.800000 -2.650000
      vertex 18.800000 28.450000 -49.150000
    endloop
  endfacet
  facet normal -1.000000 -0.000000 -0.000000
    outer loop
      vertex -18.800000 18.800000 -49.150000
      vertex -18.800000 18.800000 -2.650000
      vertex -18.800000 28.450000 -49.150000
    endloop
  endfacet
  facet normal -1.000000 0.000000 0.000000
    outer loop
      vertex -18.800000 28.450000 -49.150000
      vertex -18.800000 18.800000 -2.650000
      vertex -18.800000 28.450000 -2.650000
    endloop
  endfacet
  facet normal 0.766045 -0.642787 0.000000
    outer loop
      vertex -24.872500 25.825996 -2.650000
      vertex -24.872500 25.825996 2.650000
      vertex -26.017899 24.460962 2.650000
    endloop
  endfacet
  facet normal 0.766045 -0.642787 0.000000
    outer loop
      vertex -26.017899 24.460962 -2.650000
      vertex -24.872500 25.825996 -2.650000
      vertex -26.017899 24.460962 2.650000
    endloop
  endfacet
  facet normal 1.000000 0.000000 0.000000
    outer loop
      vertex -26.017899 24.460962 -2.650000
      vertex -26.017899 24.460962 2.650000
      vertex -26.017899 22.679038 2.650000
    endloop
  endfacet
  facet normal 1.000000 0.000000 0.000000
    outer loop
      vertex -26.017899 22.679038 -2.650000
      vertex -26.017899 24.460962 -2.650000
      vertex -26.017899 22.679038 2.650000
    endloop
  endfacet
  facet normal 0.173648 -0.984808 0.000000
    outer loop
      vertex -23.117646 26.135424 -2.650000
      vertex -23.117646 26.135424 2.650000
      vertex -24.872500 25.825996 2.650000
    endloop
  endfacet
  facet normal 0.173648 -0.984808 0.000000
    outer loop
      vertex -24.872500 25.825996 -2.650000
      vertex -23.117646 26.135424 -2.650000
      vertex -24.872500 25.825996 2.650000
    endloop
  endfacet
  facet normal -0.500000 -0.866025 -0.000000
    outer loop
      vertex -21.574454 25.244462 -2.650000
      vertex -21.574454 25.244462 2.650000
      vertex -23.117646 26.135424 2.650000
    endloop
  endfacet
  facet normal -0.500000 -0.866025 -0.000000
    outer loop
      vertex -23.117646 26.135424 -2.650000
      vertex -21.574454 25.244462 -2.650000
      vertex -23.117646 26.135424 2.650000
    endloop
  endfacet
  facet normal -0.939693 -0.342020 0.000000
    outer loop
      vertex -20.965000 23.570000 2.650000
      vertex -21.574454 25.244462 2.650000
      vertex -20.965000 23.570000 -2.650000
    endloop
  endfacet
  facet normal -0.939693 -0.342020 0.000000
    outer loop
      vertex -20.965000 23.570000 -2.650000
      vertex -21.574454 25.244462 2.650000
      vertex -21.574454 25.244462 -2.650000
    endloop
  endfacet
  facet normal -0.939693 0.342020 0.000000
    outer loop
      vertex -20.965000 23.570000 2.650000
      vertex -20.965000 23.570000 -2.650000
      vertex -21.574454 21.895538 2.650000
    endloop
  endfacet
  facet normal -0.939693 0.342020 0.000000
    outer loop
      vertex -21.574454 21.895538 2.650000
      vertex -20.965000 23.570000 -2.650000
      vertex -21.574454 21.895538 -2.650000
    endloop
  endfacet
  facet normal -0.500000 0.866025 0.000000
    outer loop
      vertex -21.574454 21.895538 2.650000
      vertex -21.574454 21.895538 -2.650000
      vertex -23.117646 21.004576 2.650000
    endloop
  endfacet
  facet normal -0.500000 0.866025 0.000000
    outer loop
      vertex -23.117646 21.004576 2.650000
      vertex -21.574454 21.895538 -2.650000
      vertex -23.117646 21.004576 -2.650000
    endloop
  endfacet
  facet normal 0.173648 0.984808 -0.000000
    outer loop
      vertex -23.117646 21.004576 2.650000
      vertex -23.117646 21.004576 -2.650000
      vertex -24.872500 21.314004 2.650000
    endloop
  endfacet
  facet normal 0.173648 0.984808 -0.000000
    outer loop
      vertex -24.872500 21.314004 2.650000
      vertex -23.117646 21.004576 -2.650000
      vertex -24.872500 21.314004 -2.650000
    endloop
  endfacet
  facet normal 0.766045 0.642787 0.000000
    outer loop
      vertex -26.017899 22.679038 2.650000
      vertex -24.872500 21.314004 2.650000
      vertex -24.872500 21.314004 -2.650000
    endloop
  endfacet
  facet normal 0.766045 0.642787 0.000000
    outer loop
      vertex -26.017899 22.679038 -2.650000
      vertex -26.017899 22.679038 2.650000
      vertex -24.872500 21.314004 -2.650000
    endloop
  endfacet
  facet normal 0.000000 0.000000 -1.000000
    outer loop
      vertex 25.565546 21.895538 -2.650000
      vertex 28.450000 18.800000 -2.650000
      vertex 24.022354 21.004576 -2.650000
    endloop
  endfacet
  facet normal 0.000000 -0.000000 -1.000000
    outer loop
      vertex 24.022354 26.135424 -2.650000
      vertex 18.800000 28.450000 -2.650000
      vertex 28.450000 28.450000 -2.650000
    endloop
  endfacet
  facet normal 0.000000 -0.000000 -1.000000
    outer loop
      vertex 18.800000 18.800000 -2.650000
      vertex 18.800000 28.450000 -2.650000
      vertex 21.122101 24.460962 -2.650000
    endloop
  endfacet
  facet normal 0.000000 0.000000 -1.000000
    outer loop
      vertex 18.800000 18.800000 -2.650000
      vertex 21.122101 24.460962 -2.650000
      vertex 21.122101 22.679038 -2.650000
    endloop
  endfacet
  facet normal 0.000000 0.000000 -1.000000
    outer loop
      vertex 18.800000 18.800000 -2.650000
      vertex 21.122101 22.679038 -2.650000
      vertex 22.267500 21.314004 -2.650000
    endloop
  endfacet
  facet normal -0.000000 0.000000 -1.000000
    outer loop
      vertex 18.800000 18.800000 -2.650000
      vertex 22.267500 21.314004 -2.650000
      vertex 28.450000 18.800000 -2.650000
    endloop
  endfacet
  facet normal 0.000000 0.000000 -1.000000
    outer loop
      vertex 22.267500 21.314004 -2.650000
      vertex 24.022354 21.004576 -2.650000
      vertex 28.450000 18.800000 -2.650000
    endloop
  endfacet
  facet normal 0.000000 0.000000 -1.000000
    outer loop
      vertex 28.450000 18.800000 -2.650000
      vertex 25.565546 21.895538 -2.650000
      vertex 28.450000 28.450000 -2.650000
    endloop
  endfacet
  facet normal 0.000000 0.000000 -1.000000
    outer loop
      vertex 25.565546 21.895538 -2.650000
      vertex 26.175000 23.570000 -2.650000
      vertex 28.450000 28.450000 -2.650000
    endloop
  endfacet
  facet normal 0.000000 -0.000000 -1.000000
    outer loop
      vertex 26.175000 23.570000 -2.650000
      vertex 25.565546 25.244462 -2.650000
      vertex 28.450000 28.450000 -2.650000
    endloop
  endfacet
  facet normal 0.000000 -0.000000 -1.000000
    outer loop
      vertex 25.565546 25.244462 -2.650000
      vertex 24.022354 26.135424 -2.650000
      vertex 28.450000 28.450000 -2.650000
    endloop
  endfacet
  facet normal 0.000000 -0.000000 -1.000000
    outer loop
      vertex 21.122101 24.460962 -2.650000
      vertex 18.800000 28.450000 -2.650000
      vertex 22.267500 25.825996 -2.650000
    endloop
  endfacet
  facet normal 0.000000 -0.000000 -1.000000
    outer loop
      vertex 22.267500 25.825996 -2.650000
      vertex 18.800000 28.450000 -2.650000
      vertex 24.022354 26.135424 -2.650000
    endloop
  endfacet
  facet normal -0.994522 -0.104528 -0.000000
    outer loop
      vertex -19.050000 0.000000 2.650000
      vertex -18.633712 -3.960718 2.650000
      vertex -19.050000 0.000000 3.950000
    endloop
  endfacet
  facet normal -0.994522 -0.104528 0.000000
    outer loop
      vertex -19.050000 0.000000 3.950000
      vertex -18.633712 -3.960718 2.650000
      vertex -18.633712 -3.960718 3.950000
    endloop
  endfacet
  facet normal -0.951056 -0.309017 -0.000000
    outer loop
      vertex -18.633712 -3.960718 2.650000
      vertex -17.403041 -7.748333 2.650000
      vertex -18.633712 -3.960718 3.950000
    endloop
  endfacet
  facet normal -0.951056 -0.309017 0.000000
    outer loop
      vertex -18.633712 -3.960718 3.950000
      vertex -17.403041 -7.748333 2.650000
      vertex -17.403041 -7.748333 3.950000
    endloop
  endfacet
  facet normal -0.866025 -0.500000 -0.000000
    outer loop
      vertex -17.403041 -7.748333 2.650000
      vertex -15.411774 -11.197309 2.650000
      vertex -17.403041 -7.748333 3.950000
    endloop
  endfacet
  facet normal -0.866025 -0.500000 0.000000
    outer loop
      vertex -17.403041 -7.748333 3.950000
      vertex -15.411774 -11.197309 2.650000
      vertex -15.411774 -11.197309 3.950000
    endloop
  endfacet
  facet normal -0.743145 -0.669131 -0.000000
    outer loop
      vertex -15.411774 -11.197309 2.650000
      vertex -12.746938 -14.156909 2.650000
      vertex -15.411774 -11.197309 3.950000
    endloop
  endfacet
  facet normal -0.743145 -0.669131 0.000000
    outer loop
      vertex -15.411774 -11.197309 3.950000
      vertex -12.746938 -14.156909 2.650000
      vertex -12.746938 -14.156909 3.950000
    endloop
  endfacet
  facet normal -0.587785 -0.809017 0.000000
    outer loop
      vertex -12.746938 -14.156909 3.950000
      vertex -12.746938 -14.156909 2.650000
      vertex -9.525000 -16.497784 2.650000
    endloop
  endfacet
  facet normal -0.587785 -0.809017 0.000000
    outer loop
      vertex -9.525000 -16.497784 3.950000
      vertex -12.746938 -14.156909 3.950000
      vertex -9.525000 -16.497784 2.650000
    endloop
  endfacet
  facet normal -0.406737 -0.913545 0.000000
    outer loop
      vertex -9.525000 -16.497784 3.950000
      vertex -9.525000 -16.497784 2.650000
      vertex -5.886774 -18.117627 2.650000
    endloop
  endfacet
  facet normal -0.406737 -0.913545 0.000000
    outer loop
      vertex -5.886774 -18.117627 3.950000
      vertex -9.525000 -16.497784 3.950000
      vertex -5.886774 -18.117627 2.650000
    endloop
  endfacet
  facet normal -0.207912 -0.978148 0.000000
    outer loop
      vertex -5.886774 -18.117627 3.950000
      vertex -5.886774 -18.117627 2.650000
      vertex -1.991267 -18.945642 2.650000
    endloop
  endfacet
  facet normal -0.207912 -0.978148 0.000000
    outer loop
      vertex -1.991267 -18.945642 3.950000
      vertex -5.886774 -18.117627 3.950000
      vertex -1.991267 -18.945642 2.650000
    endloop
  endfacet
  facet normal 0.000000 -1.000000 0.000000
    outer loop
      vertex -1.991267 -18.945642 3.950000
      vertex -1.991267 -18.945642 2.650000
      vertex 1.991267 -18.945642 2.650000
    endloop
  endfacet
  facet normal 0.000000 -1.000000 0.000000
    outer loop
      vertex 1.991267 -18.945642 3.950000
      vertex -1.991267 -18.945642 3.950000
      vertex 1.991267 -18.945642 2.650000
    endloop
  endfacet
  facet normal 0.207912 -0.978148 0.000000
    outer loop
      vertex 1.991267 -18.945642 3.950000
      vertex 1.991267 -18.945642 2.650000
      vertex 5.886774 -18.117627 2.650000
    endloop
  endfacet
  facet normal 0.207912 -0.978148 0.000000
    outer loop
      vertex 5.886774 -18.117627 3.950000
      vertex 1.991267 -18.945642 3.950000
      vertex 5.886774 -18.117627 2.650000
    endloop
  endfacet
  facet normal 0.406737 -0.913545 0.000000
    outer loop
      vertex 5.886774 -18.117627 3.950000
      vertex 5.886774 -18.117627 2.650000
      vertex 9.525000 -16.497784 2.650000
    endloop
  endfacet
  facet normal 0.406737 -0.913545 0.000000
    outer loop
      vertex 9.525000 -16.497784 3.950000
      vertex 5.886774 -18.117627 3.950000
      vertex 9.525000 -16.497784 2.650000
    endloop
  endfacet
  facet normal 0.587785 -0.809017 0.000000
    outer loop
      vertex 9.525000 -16.497784 3.950000
      vertex 9.525000 -16.497784 2.650000
      vertex 12.746938 -14.156909 2.650000
    endloop
  endfacet
  facet normal 0.587785 -0.809017 0.000000
    outer loop
      vertex 12.746938 -14.156909 3.950000
      vertex 9.525000 -16.497784 3.950000
      vertex 12.746938 -14.156909 2.650000
    endloop
  endfacet
  facet normal 0.743145 -0.669131 0.000000
    outer loop
      vertex 12.746938 -14.156909 3.950000
      vertex 12.746938 -14.156909 2.650000
      vertex 15.411774 -11.197309 2.650000
    endloop
  endfacet
  facet normal 0.743145 -0.669131 0.000000
    outer loop
      vertex 15.411774 -11.197309 3.950000
      vertex 12.746938 -14.156909 3.950000
      vertex 15.411774 -11.197309 2.650000
    endloop
  endfacet
  facet normal 0.866025 -0.500000 0.000000
    outer loop
      vertex 15.411774 -11.197309 3.950000
      vertex 15.411774 -11.197309 2.650000
      vertex 17.403041 -7.748333 2.650000
    endloop
  endfacet
  facet normal 0.866025 -0.500000 0.000000
    outer loop
      vertex 17.403041 -7.748333 3.950000
      vertex 15.411774 -11.197309 3.950000
      vertex 17.403041 -7.748333 2.650000
    endloop
  endfacet
  facet normal 0.951056 -0.309017 0.000000
    outer loop
      vertex 17.403041 -7.748333 3.950000
      vertex 17.403041 -7.748333 2.650000
      vertex 18.633712 -3.960718 2.650000
    endloop
  endfacet
  facet normal 0.951056 -0.309017 0.000000
    outer loop
      vertex 18.633712 -3.960718 3.950000
      vertex 17.403041 -7.748333 3.950000
      vertex 18.633712 -3.960718 2.650000
    endloop
  endfacet
  facet normal 0.994522 -0.104528 0.000000
    outer loop
      vertex 18.633712 -3.960718 3.950000
      vertex 18.633712 -3.960718 2.650000
      vertex 19.050000 0.000000 2.650000
    endloop
  endfacet
  facet normal 0.994522 -0.104528 0.000000
    outer loop
      vertex 19.050000 0.000000 3.950000
      vertex 18.633712 -3.960718 3.950000
      vertex 19.050000 0.000000 2.650000
    endloop
  endfacet
  facet normal 0.994522 0.104528 0.000000
    outer loop
      vertex 19.050000 0.000000 2.650000
      vertex 18.633712 3.960718 2.650000
      vertex 18.633712 3.960718 3.950000
    endloop
  endfacet
  facet normal 0.994522 0.104528 -0.000000
    outer loop
      vertex 19.050000 0.000000 3.950000
      vertex 19.050000 0.000000 2.650000
      vertex 18.633712 3.960718 3.950000
    endloop
  endfacet
  facet normal 0.951056 0.309017 0.000000
    outer loop
      vertex 18.633712 3.960718 2.650000
      vertex 17.403041 7.748333 2.650000
      vertex 17.403041 7.748333 3.950000
    endloop
  endfacet
  facet normal 0.951056 0.309017 -0.000000
    outer loop
      vertex 18.633712 3.960718 3.950000
      vertex 18.633712 3.960718 2.650000
      vertex 17.403041 7.748333 3.950000
    endloop
  endfacet
  facet normal 0.866025 0.500000 0.000000
    outer loop
      vertex 17.403041 7.748333 2.650000
      vertex 15.411774 11.197309 2.650000
      vertex 15.411774 11.197309 3.950000
    endloop
  endfacet
  facet normal 0.866025 0.500000 -0.000000
    outer loop
      vertex 17.403041 7.748333 3.950000
      vertex 17.403041 7.748333 2.650000
      vertex 15.411774 11.197309 3.950000
    endloop
  endfacet
  facet normal 0.743145 0.669131 0.000000
    outer loop
      vertex 15.411774 11.197309 2.650000
      vertex 12.746938 14.156909 2.650000
      vertex 12.746938 14.156909 3.950000
    endloop
  endfacet
  facet normal 0.743145 0.669131 -0.000000
    outer loop
      vertex 15.411774 11.197309 3.950000
      vertex 15.411774 11.197309 2.650000
      vertex 12.746938 14.156909 3.950000
    endloop
  endfacet
  facet normal 0.587785 0.809017 0.000000
    outer loop
      vertex 9.525000 16.497784 2.650000
      vertex 9.525000 16.497784 3.950000
      vertex 12.746938 14.156909 2.650000
    endloop
  endfacet
  facet normal 0.587785 0.809017 0.000000
    outer loop
      vertex 12.746938 14.156909 2.650000
      vertex 9.525000 16.497784 3.950000
      vertex 12.746938 14.156909 3.950000
    endloop
  endfacet
  facet normal 0.406737 0.913545 0.000000
    outer loop
      vertex 5.886774 18.117627 2.650000
      vertex 5.886774 18.117627 3.950000
      vertex 9.525000 16.497784 2.650000
    endloop
  endfacet
  facet normal 0.406737 0.913545 0.000000
    outer loop
      vertex 9.525000 16.497784 2.650000
      vertex 5.886774 18.117627 3.950000
      vertex 9.525000 16.497784 3.950000
    endloop
  endfacet
  facet normal 0.207912 0.978148 0.000000
    outer loop
      vertex 1.991267 18.945642 2.650000
      vertex 1.991267 18.945642 3.950000
      vertex 5.886774 18.117627 2.650000
    endloop
  endfacet
  facet normal 0.207912 0.978148 0.000000
    outer loop
      vertex 5.886774 18.117627 2.650000
      vertex 1.991267 18.945642 3.950000
      vertex 5.886774 18.117627 3.950000
    endloop
  endfacet
  facet normal 0.000000 1.000000 0.000000
    outer loop
      vertex -1.991267 18.945642 2.650000
      vertex -1.991267 18.945642 3.950000
      vertex 1.991267 18.945642 2.650000
    endloop
  endfacet
  facet normal 0.000000 1.000000 0.000000
    outer loop
      vertex 1.991267 18.945642 2.650000
      vertex -1.991267 18.945642 3.950000
      vertex 1.991267 18.945642 3.950000
    endloop
  endfacet
  facet normal -0.207912 0.978148 0.000000
    outer loop
      vertex -5.886774 18.117627 2.650000
      vertex -5.886774 18.117627 3.950000
      vertex -1.991267 18.945642 2.650000
    endloop
  endfacet
  facet normal -0.207912 0.978148 0.000000
    outer loop
      vertex -1.991267 18.945642 2.650000
      vertex -5.886774 18.117627 3.950000
      vertex -1.991267 18.945642 3.950000
    endloop
  endfacet
  facet normal -0.406737 0.913545 0.000000
    outer loop
      vertex -9.525000 16.497784 2.650000
      vertex -9.525000 16.497784 3.950000
      vertex -5.886774 18.117627 2.650000
    endloop
  endfacet
  facet normal -0.406737 0.913545 0.000000
    outer loop
      vertex -5.886774 18.117627 2.650000
      vertex -9.525000 16.497784 3.950000
      vertex -5.886774 18.117627 3.950000
    endloop
  endfacet
  facet normal -0.587785 0.809017 0.000000
    outer loop
      vertex -12.746938 14.156909 2.650000
      vertex -12.746938 14.156909 3.950000
      vertex -9.525000 16.497784 2.650000
    endloop
  endfacet
  facet normal -0.587785 0.809017 0.000000
    outer loop
      vertex -9.525000 16.497784 2.650000
      vertex -12.746938 14.156909 3.950000
      vertex -9.525000 16.497784 3.950000
    endloop
  endfacet
  facet normal -0.743145 0.669131 0.000000
    outer loop
      vertex -15.411774 11.197309 2.650000
      vertex -15.411774 11.197309 3.950000
      vertex -12.746938 14.156909 2.650000
    endloop
  endfacet
  facet normal -0.743145 0.669131 0.000000
    outer loop
      vertex -12.746938 14.156909 2.650000
      vertex -15.411774 11.197309 3.950000
      vertex -12.746938 14.156909 3.950000
    endloop
  endfacet
  facet normal -0.866025 0.500000 0.000000
    outer loop
      vertex -17.403041 7.748333 2.650000
      vertex -17.403041 7.748333 3.950000
      vertex -15.411774 11.197309 2.650000
    endloop
  endfacet
  facet normal -0.866025 0.500000 0.000000
    outer loop
      vertex -15.411774 11.197309 2.650000
      vertex -17.403041 7.748333 3.950000
      vertex -15.411774 11.197309 3.950000
    endloop
  endfacet
  facet normal -0.951056 0.309017 0.000000
    outer loop
      vertex -18.633712 3.960718 2.650000
      vertex -18.633712 3.960718 3.950000
      vertex -17.403041 7.748333 2.650000
    endloop
  endfacet
  facet normal -0.951056 0.309017 0.000000
    outer loop
      vertex -17.403041 7.748333 2.650000
      vertex -18.633712 3.960718 3.950000
      vertex -17.403041 7.748333 3.950000
    endloop
  endfacet
  facet normal -0.994522 0.104528 0.000000
    outer loop
      vertex -19.050000 0.000000 2.650000
      vertex -19.050000 0.000000 3.950000
      vertex -18.633712 3.960718 2.650000
    endloop
  endfacet
  facet normal -0.994522 0.104528 0.000000
    outer loop
      vertex -18.633712 3.960718 2.650000
      vertex -19.050000 0.000000 3.950000
      vertex -18.633712 3.960718 3.950000
    endloop
  endfacet
  facet normal 1.000000 0.000000 0.000000
    outer loop
      vertex 21.122101 -22.679038 -2.650000
      vertex 21.122101 -22.679038 2.650000
      vertex 21.122101 -24.460962 2.650000
    endloop
  endfacet
  facet normal 1.000000 0.000000 0.000000
    outer loop
      vertex 21.122101 -24.460962 -2.650000
      vertex 21.122101 -22.679038 -2.650000
      vertex 21.122101 -24.460962 2.650000
    endloop
  endfacet
  facet normal 0.766045 0.642787 0.000000
    outer loop
      vertex 21.122101 -24.460962 2.650000
      vertex 22.267500 -25.825996 2.650000
      vertex 22.267500 -25.825996 -2.650000
    endloop
  endfacet
  facet normal 0.766045 0.642787 0.000000
    outer loop
      vertex 21.122101 -24.460962 -2.650000
      vertex 21.122101 -24.460962 2.650000
      vertex 22.267500 -25.825996 -2.650000
    endloop
  endfacet
  facet normal 0.173648 0.984808 -0.000000
    outer loop
      vertex 24.022354 -26.135424 2.650000
      vertex 24.022354 -26.135424 -2.650000
      vertex 22.267500 -25.825996 2.650000
    endloop
  endfacet
  facet normal 0.173648 0.984808 -0.000000
    outer loop
      vertex 22.267500 -25.825996 2.650000
      vertex 24.022354 -26.135424 -2.650000
      vertex 22.267500 -25.825996 -2.650000
    endloop
  endfacet
  facet normal -0.500000 0.866025 0.000000
    outer loop
      vertex 25.565546 -25.244462 2.650000
      vertex 25.565546 -25.244462 -2.650000
      vertex 24.022354 -26.135424 2.650000
    endloop
  endfacet
  facet normal -0.500000 0.866025 0.000000
    outer loop
      vertex 24.022354 -26.135424 2.650000
      vertex 25.565546 -25.244462 -2.650000
      vertex 24.022354 -26.135424 -2.650000
    endloop
  endfacet
  facet normal -0.939693 0.342020 0.000000
    outer loop
      vertex 26.175000 -23.570000 2.650000
      vertex 26.175000 -23.570000 -2.650000
      vertex 25.565546 -25.244462 2.650000
    endloop
  endfacet
  facet normal -0.939693 0.342020 0.000000
    outer loop
      vertex 25.565546 -25.244462 2.650000
      vertex 26.175000 -23.570000 -2.650000
      vertex 25.565546 -25.244462 -2.650000
    endloop
  endfacet
  facet normal -0.939693 -0.342020 0.000000
    outer loop
      vertex 26.175000 -23.570000 2.650000
      vertex 25.565546 -21.895538 2.650000
      vertex 26.175000 -23.570000 -2.650000
    endloop
  endfacet
  facet normal -0.939693 -0.342020 0.000000
    outer loop
      vertex 26.175000 -23.570000 -2.650000
      vertex 25.565546 -21.895538 2.650000
      vertex 25.565546 -21.895538 -2.650000
    endloop
  endfacet
  facet normal -0.500000 -0.866025 -0.000000
    outer loop
      vertex 25.565546 -21.895538 -2.650000
      vertex 25.565546 -21.895538 2.650000
      vertex 24.022354 -21.004576 2.650000
    endloop
  endfacet
  facet normal -0.500000 -0.866025 -0.000000
    outer loop
      vertex 24.022354 -21.004576 -2.650000
      vertex 25.565546 -21.895538 -2.650000
      vertex 24.022354 -21.004576 2.650000
    endloop
  endfacet
  facet normal 0.173648 -0.984808 0.000000
    outer loop
      vertex 24.022354 -21.004576 -2.650000
      vertex 24.022354 -21.004576 2.650000
      vertex 22.267500 -21.314004 2.650000
    endloop
  endfacet
  facet normal 0.173648 -0.984808 0.000000
    outer loop
      vertex 22.267500 -21.314004 -2.650000
      vertex 24.022354 -21.004576 -2.650000
      vertex 22.267500 -21.314004 2.650000
    endloop
  endfacet
  facet normal 0.766045 -0.642787 0.000000
    outer loop
      vertex 22.267500 -21.314004 -2.650000
      vertex 22.267500 -21.314004 2.650000
      vertex 21.122101 -22.679038 2.650000
    endloop
  endfacet
  facet normal 0.766045 -0.642787 0.000000
    outer loop
      vertex 21.122101 -22.679038 -2.650000
      vertex 22.267500 -21.314004 -2.650000
      vertex 21.122101 -22.679038 2.650000
    endloop
  endfacet
  facet normal 1.000000 0.000000 0.000000
    outer loop
      vertex 21.122101 24.460962 -2.650000
      vertex 21.122101 24.460962 2.650000
      vertex 21.122101 22.679038 2.650000
    endloop
  endfacet
  facet normal 1.000000 0.000000 0.000000
    outer loop
      vertex 21.122101 22.679038 -2.650000
      vertex 21.122101 24.460962 -2.650000
      vertex 21.122101 22.679038 2.650000
    endloop
  endfacet
  facet normal 0.766045 0.642787 0.000000
    outer loop
      vertex 21.122101 22.679038 2.650000
      vertex 22.267500 21.314004 2.650000
      vertex 22.267500 21.314004 -2.650000
    endloop
  endfacet
  facet normal 0.766045 0.642787 0.000000
    outer loop
      vertex 21.122101 22.679038 -2.650000
      vertex 21.122101 22.679038 2.650000
      vertex 22.267500 21.314004 -2.650000
    endloop
  endfacet
  facet normal 0.173648 0.984808 -0.000000
    outer loop
      vertex 24.022354 21.004576 2.650000
      vertex 24.022354 21.004576 -2.650000
      vertex 22.267500 21.314004 2.650000
    endloop
  endfacet
  facet normal 0.173648 0.984808 -0.000000
    outer loop
      vertex 22.267500 21.314004 2.650000
      vertex 24.022354 21.004576 -2.650000
      vertex 22.267500 21.314004 -2.650000
    endloop
  endfacet
  facet normal -0.500000 0.866025 0.000000
    outer loop
      vertex 25.565546 21.895538 2.650000
      vertex 25.565546 21.895538 -2.650000
      vertex 24.022354 21.004576 2.650000
    endloop
  endfacet
  facet normal -0.500000 0.866025 0.000000
    outer loop
      vertex 24.022354 21.004576 2.650000
      vertex 25.565546 21.895538 -2.650000
      vertex 24.022354 21.004576 -2.650000
    endloop
  endfacet
  facet normal -0.939693 0.342020 0.000000
    outer loop
      vertex 26.175000 23.570000 2.650000
      vertex 26.175000 23.570000 -2.650000
      vertex 25.565546 21.895538 2.650000
    endloop
  endfacet
  facet normal -0.939693 0.342020 0.000000
    outer loop
      vertex 25.565546 21.895538 2.650000
      vertex 26.175000 23.570000 -2.650000
      vertex 25.565546 21.895538 -2.650000
    endloop
  endfacet
  facet normal -0.939693 -0.342020 0.000000
    outer loop
      vertex 26.175000 23.570000 2.650000
      vertex 25.565546 25.244462 2.650000
      vertex 26.175000 23.570000 -2.650000
    endloop
  endfacet
  facet normal -0.939693 -0.342020 0.000000
    outer loop
      vertex 26.175000 23.570000 -2.650000
      vertex 25.565546 25.244462 2.650000
      vertex 25.565546 25.244462 -2.650000
    endloop
  endfacet
  facet normal -0.500000 -0.866025 -0.000000
    outer loop
      vertex 25.565546 25.244462 -2.650000
      vertex 25.565546 25.244462 2.650000
      vertex 24.022354 26.135424 2.650000
    endloop
  endfacet
  facet normal -0.500000 -0.866025 -0.000000
    outer loop
      vertex 24.022354 26.135424 -2.650000
      vertex 25.565546 25.244462 -2.650000
      vertex 24.022354 26.135424 2.650000
    endloop
  endfacet
  facet normal 0.173648 -0.984808 0.000000
    outer loop
      vertex 24.022354 26.135424 -2.650000
      vertex 24.022354 26.135424 2.650000
      vertex 22.267500 25.825996 2.650000
    endloop
  endfacet
  facet normal 0.173648 -0.984808 0.000000
    outer loop
      vertex 22.267500 25.825996 -2.650000
      vertex 24.022354 26.135424 -2.650000
      vertex 22.267500 25.825996 2.650000
    endloop
  endfacet
  facet normal 0.766045 -0.642787 0.000000
    outer loop
      vertex 22.267500 25.825996 -2.650000
      vertex 22.267500 25.825996 2.650000
      vertex 21.122101 24.460962 2.650000
    endloop
  endfacet
  facet normal 0.766045 -0.642787 0.000000
    outer loop
      vertex 21.122101 24.460962 -2.650000
      vertex 22.267500 25.825996 -2.650000
      vertex 21.122101 24.460962 2.650000
    endloop
  endfacet
  facet normal 0.000000 0.000000 1.000000
    outer loop
      vertex -18.633712 3.960718 3.950000
      vertex -19.050000 0.000000 3.950000
      vertex -18.633712 -3.960718 3.950000
    endloop
  endfacet
  facet normal 0.000000 0.000000 1.000000
    outer loop
      vertex -15.411774 -11.197309 3.950000
      vertex -18.633712 3.960718 3.950000
      vertex -17.403041 -7.748333 3.950000
    endloop
  endfacet
  facet normal 0.000000 0.000000 1.000000
    outer loop
      vertex -17.403041 -7.748333 3.950000
      vertex -18.633712 3.960718 3.950000
      vertex -18.633712 -3.960718 3.950000
    endloop
  endfacet
  facet normal 0.000000 0.000000 1.000000
    outer loop
      vertex -12.746938 -14.156909 3.950000
      vertex -18.633712 3.960718 3.950000
      vertex -15.411774 -11.197309 3.950000
    endloop
  endfacet
  facet normal 0.000000 0.000000 1.000000
    outer loop
      vertex -9.525000 -16.497784 3.950000
      vertex -18.633712 3.960718 3.950000
      vertex -12.746938 -14.156909 3.950000
    endloop
  endfacet
  facet normal 0.000000 0.000000 1.000000
    outer loop
      vertex -5.886774 -18.117627 3.950000
      vertex -18.633712 3.960718 3.950000
      vertex -9.525000 -16.497784 3.950000
    endloop
  endfacet
  facet normal 0.000000 0.000000 1.000000
    outer loop
      vertex -1.991267 -18.945642 3.950000
      vertex -18.633712 3.960718 3.950000
      vertex -5.886774 -18.117627 3.950000
    endloop
  endfacet
  facet normal -0.000000 0.000000 1.000000
    outer loop
      vertex 1.991267 -18.945642 3.950000
      vertex -18.633712 3.960718 3.950000
      vertex -1.991267 -18.945642 3.950000
    endloop
  endfacet
  facet normal -0.000000 0.000000 1.000000
    outer loop
      vertex 5.886774 -18.117627 3.950000
      vertex -18.633712 3.960718 3.950000
      vertex 1.991267 -18.945642 3.950000
    endloop
  endfacet
  facet normal -0.000000 0.000000 1.000000
    outer loop
      vertex 9.525000 -16.497784 3.950000
      vertex -18.633712 3.960718 3.950000
      vertex 5.886774 -18.117627 3.950000
    endloop
  endfacet
  facet normal -0.000000 0.000000 1.000000
    outer loop
      vertex 12.746938 -14.156909 3.950000
      vertex -18.633712 3.960718 3.950000
      vertex 9.525000 -16.497784 3.950000
    endloop
  endfacet
  facet normal -0.000000 0.000000 1.000000
    outer loop
      vertex 15.411774 -11.197309 3.950000
      vertex -18.633712 3.960718 3.950000
      vertex 12.746938 -14.156909 3.950000
    endloop
  endfacet
  facet normal -0.000000 0.000000 1.000000
    outer loop
      vertex 17.403041 -7.748333 3.950000
      vertex -18.633712 3.960718 3.950000
      vertex 15.411774 -11.197309 3.950000
    endloop
  endfacet
  facet normal -0.000000 0.000000 1.000000
    outer loop
      vertex 18.633712 -3.960718 3.950000
      vertex -18.633712 3.960718 3.950000
      vertex 17.403041 -7.748333 3.950000
    endloop
  endfacet
  facet normal -0.000000 0.000000 1.000000
    outer loop
      vertex 19.050000 0.000000 3.950000
      vertex -18.633712 3.960718 3.950000
      vertex 18.633712 -3.960718 3.950000
    endloop
  endfacet
  facet normal 0.000000 -0.000000 1.000000
    outer loop
      vertex 18.633712 3.960718 3.950000
      vertex -18.633712 3.960718 3.950000
      vertex 19.050000 0.000000 3.950000
    endloop
  endfacet
  facet normal 0.000000 -0.000000 1.000000
    outer loop
      vertex 17.403041 7.748333 3.950000
      vertex -18.633712 3.960718 3.950000
      vertex 18.633712 3.960718 3.950000
    endloop
  endfacet
  facet normal 0.000000 -0.000000 1.000000
    outer loop
      vertex 15.411774 11.197309 3.950000
      vertex -18.633712 3.960718 3.950000
      vertex 17.403041 7.748333 3.950000
    endloop
  endfacet
  facet normal 0.000000 -0.000000 1.000000
    outer loop
      vertex 12.746938 14.156909 3.950000
      vertex -18.633712 3.960718 3.950000
      vertex 15.411774 11.197309 3.950000
    endloop
  endfacet
  facet normal 0.000000 -0.000000 1.000000
    outer loop
      vertex 9.525000 16.497784 3.950000
      vertex -18.633712 3.960718 3.950000
      vertex 12.746938 14.156909 3.950000
    endloop
  endfacet
  facet normal 0.000000 -0.000000 1.000000
    outer loop
      vertex 5.886774 18.117627 3.950000
      vertex -18.633712 3.960718 3.950000
      vertex 9.525000 16.497784 3.950000
    endloop
  endfacet
  facet normal 0.000000 -0.000000 1.000000
    outer loop
      vertex 1.991267 18.945642 3.950000
      vertex -18.633712 3.960718 3.950000
      vertex 5.886774 18.117627 3.950000
    endloop
  endfacet
  facet normal 0.000000 -0.000000 1.000000
    outer loop
      vertex -1.991267 18.945642 3.950000
      vertex -18.633712 3.960718 3.950000
      vertex 1.991267 18.945642 3.950000
    endloop
  endfacet
  facet normal 0.000000 -0.000000 1.000000
    outer loop
      vertex -5.886774 18.117627 3.950000
      vertex -18.633712 3.960718 3.950000
      vertex -1.991267 18.945642 3.950000
    endloop
  endfacet
  facet normal 0.000000 -0.000000 1.000000
    outer loop
      vertex -9.525000 16.497784 3.950000
      vertex -18.633712 3.960718 3.950000
      vertex -5.886774 18.117627 3.950000
    endloop
  endfacet
  facet normal 0.000000 -0.000000 1.000000
    outer loop
      vertex -12.746938 14.156909 3.950000
      vertex -18.633712 3.960718 3.950000
      vertex -9.525000 16.497784 3.950000
    endloop
  endfacet
  facet normal 0.000000 -0.000000 1.000000
    outer loop
      vertex -15.411774 11.197309 3.950000
      vertex -18.633712 3.960718 3.950000
      vertex -12.746938 14.156909 3.950000
    endloop
  endfacet
  facet normal 0.000000 -0.000000 1.000000
    outer loop
      vertex -17.403041 7.748333 3.950000
      vertex -18.633712 3.960718 3.950000
      vertex -15.411774 11.197309 3.950000
    endloop
  endfacet
  facet normal -0.000000 0.000000 -1.000000
    outer loop
      vertex -3.168500 0.000000 3.950000
      vertex -2.563370 1.862398 3.950000
      vertex -2.563370 -1.862398 3.950000
    endloop
  endfacet
  facet normal 0.000000 -0.000000 -1.000000
    outer loop
      vertex -2.563370 -1.862398 3.950000
      vertex -2.563370 1.862398 3.950000
      vertex -0.979120 3.013423 3.950000
    endloop
  endfacet
  facet normal 0.000000 0.000000 -1.000000
    outer loop
      vertex -2.563370 -1.862398 3.950000
      vertex -0.979120 3.013423 3.950000
      vertex 0.979120 3.013423 3.950000
    endloop
  endfacet
  facet normal 0.000000 0.000000 -1.000000
    outer loop
      vertex -2.563370 -1.862398 3.950000
      vertex 0.979120 3.013423 3.950000
      vertex 2.563370 1.862398 3.950000
    endloop
  endfacet
  facet normal 0.000000 0.000000 -1.000000
    outer loop
      vertex -2.563370 -1.862398 3.950000
      vertex 2.563370 1.862398 3.950000
      vertex 3.168500 0.000000 3.950000
    endloop
  endfacet
  facet normal -0.000000 0.000000 -1.000000
    outer loop
      vertex -2.563370 -1.862398 3.950000
      vertex 3.168500 0.000000 3.950000
      vertex 2.563370 -1.862398 3.950000
    endloop
  endfacet
  facet normal 0.000000 0.000000 -1.000000
    outer loop
      vertex -2.563370 -1.862398 3.950000
      vertex 2.563370 -1.862398 3.950000
      vertex 0.979120 -3.013423 3.950000
    endloop
  endfacet
  facet normal 0.000000 0.000000 -1.000000
    outer loop
      vertex -2.563370 -1.862398 3.950000
      vertex 0.979120 -3.013423 3.950000
      vertex -0.979120 -3.013423 3.950000
    endloop
  endfacet
  facet normal -0.951056 0.309017 0.000000
    outer loop
      vertex -3.168500 0.000000 3.950000
      vertex -3.168500 0.000000 24.550000
      vertex -2.563370 1.862398 3.950000
    endloop
  endfacet
  facet normal -0.951056 0.309017 0.000000
    outer loop
      vertex -2.563370 1.862398 3.950000
      vertex -3.168500 0.000000 24.550000
      vertex -2.563370 1.862398 24.550000
    endloop
  endfacet
  facet normal -0.951056 -0.309017 -0.000000
    outer loop
      vertex -3.168500 0.000000 3.950000
      vertex -2.563370 -1.862398 3.950000
      vertex -3.168500 0.000000 24.550000
    endloop
  endfacet
  facet normal -0.951056 -0.309017 0.000000
    outer loop
      vertex -3.168500 0.000000 24.550000
      vertex -2.563370 -1.862398 3.950000
      vertex -2.563370 -1.862398 24.550000
    endloop
  endfacet
  facet normal -0.587785 -0.809017 0.000000
    outer loop
      vertex -2.563370 -1.862398 24.550000
      vertex -2.563370 -1.862398 3.950000
      vertex -0.979120 -3.013423 3.950000
    endloop
  endfacet
  facet normal -0.587785 -0.809017 0.000000
    outer loop
      vertex -0.979120 -3.013423 24.550000
      vertex -2.563370 -1.862398 24.550000
      vertex -0.979120 -3.013423 3.950000
    endloop
  endfacet
  facet normal 0.000000 -1.000000 0.000000
    outer loop
      vertex -0.979120 -3.013423 24.550000
      vertex -0.979120 -3.013423 3.950000
      vertex 0.979120 -3.013423 3.950000
    endloop
  endfacet
  facet normal 0.000000 -1.000000 0.000000
    outer loop
      vertex 0.979120 -3.013423 24.550000
      vertex -0.979120 -3.013423 24.550000
      vertex 0.979120 -3.013423 3.950000
    endloop
  endfacet
  facet normal 0.587785 -0.809017 0.000000
    outer loop
      vertex 0.979120 -3.013423 24.550000
      vertex 0.979120 -3.013423 3.950000
      vertex 2.563370 -1.862398 3.950000
    endloop
  endfacet
  facet normal 0.587785 -0.809017 0.000000
    outer loop
      vertex 2.563370 -1.862398 24.550000
      vertex 0.979120 -3.013423 24.550000
      vertex 2.563370 -1.862398 3.950000
    endloop
  endfacet
  facet normal 0.951056 -0.309017 0.000000
    outer loop
      vertex 2.563370 -1.862398 24.550000
      vertex 2.563370 -1.862398 3.950000
      vertex 3.168500 0.000000 3.950000
    endloop
  endfacet
  facet normal 0.951056 -0.309017 0.000000
    outer loop
      vertex 3.168500 0.000000 24.550000
      vertex 2.563370 -1.862398 24.550000
      vertex 3.168500 0.000000 3.950000
    endloop
  endfacet
  facet normal 0.951056 0.309017 0.000000
    outer loop
      vertex 3.168500 0.000000 3.950000
      vertex 2.563370 1.862398 3.950000
      vertex 2.563370 1.862398 24.550000
    endloop
  endfacet
  facet normal 0.951056 0.309017 -0.000000
    outer loop
      vertex 3.168500 0.000000 24.550000
      vertex 3.168500 0.000000 3.950000
      vertex 2.563370 1.862398 24.550000
    endloop
  endfacet
  facet normal 0.587785 0.809017 0.000000
    outer loop
      vertex 0.979120 3.013423 3.950000
      vertex 0.979120 3.013423 24.550000
      vertex 2.563370 1.862398 3.950000
    endloop
  endfacet
  facet normal 0.587785 0.809017 0.000000
    outer loop
      vertex 2.563370 1.862398 3.950000
      vertex 0.979120 3.013423 24.550000
      vertex 2.563370 1.862398 24.550000
    endloop
  endfacet
  facet normal 0.000000 1.000000 0.000000
    outer loop
      vertex -0.979120 3.013423 3.950000
      vertex -0.979120 3.013423 24.550000
      vertex 0.979120 3.013423 3.950000
    endloop
  endfacet
  facet normal 0.000000 1.000000 0.000000
    outer loop
      vertex 0.979120 3.013423 3.950000
      vertex -0.979120 3.013423 24.550000
      vertex 0.979120 3.013423 24.550000
    endloop
  endfacet
  facet normal -0.587785 0.809017 0.000000
    outer loop
      vertex -2.563370 1.862398 3.950000
      vertex -2.563370 1.862398 24.550000
      vertex -0.979120 3.013423 3.950000
    endloop
  endfacet
  facet normal -0.587785 0.809017 0.000000
    outer loop
      vertex -0.979120 3.013423 3.950000
      vertex -2.563370 1.862398 24.550000
      vertex -0.979120 3.013423 24.550000
    endloop
  endfacet
  facet normal 0.000000 0.000000 1.000000
    outer loop
      vertex -2.563370 1.862398 24.550000
      vertex -3.168500 0.000000 24.550000
      vertex -2.563370 -1.862398 24.550000
    endloop
  endfacet
  facet normal -0.000000 0.000000 1.000000
    outer loop
      vertex 0.979120 -3.013423 24.550000
      vertex -2.563370 1.862398 24.550000
      vertex -0.979120 -3.013423 24.550000
    endloop
  endfacet
  facet normal 0.000000 0.000000 1.000000
    outer loop
      vertex -0.979120 -3.013423 24.550000
      vertex -2.563370 1.862398 24.550000
      vertex -2.563370 -1.862398 24.550000
    endloop
  endfacet
  facet normal -0.000000 0.000000 1.000000
    outer loop
      vertex 2.563370 -1.862398 24.550000
      vertex -2.563370 1.862398 24.550000
      vertex 0.979120 -3.013423 24.550000
    endloop
  endfacet
  facet normal -0.000000 0.000000 1.000000
    outer loop
      vertex 3.168500 0.000000 24.550000
      vertex -2.563370 1.862398 24.550000
      vertex 2.563370 -1.862398 24.550000
    endloop
  endfacet
  facet normal 0.000000 -0.000000 1.000000
    outer loop
      vertex 2.563370 1.862398 24.550000
      vertex -2.563370 1.862398 24.550000
      vertex 3.168500 0.000000 24.550000
    endloop
  endfacet
  facet normal 0.000000 -0.000000 1.000000
    outer loop
      vertex 0.979120 3.013423 24.550000
      vertex -2.563370 1.862398 24.550000
      vertex 2.563370 1.862398 24.550000
    endloop
  endfacet
  facet normal 0.000000 -0.000000 1.000000
    outer loop
      vertex -0.979120 3.013423 24.550000
      vertex -2.563370 1.862398 24.550000
      vertex 0.979120 3.013423 24.550000
    endloop
  endfacet
endsolid
