  0
SECTION
  2
BLOCKS
  0
ENDSEC
  0
SECTION
  2
ENTITIES
  0
LINE
  8
0
 10
230.49
 20
-234.976
 11
230.975
 21
-234.904
  0
LINE
  8
0
 10
230.975
 20
-234.904
 11
231.451
 21
-234.785
  0
LINE
  8
0
 10
231.451
 20
-234.785
 11
231.913
 21
-234.619
  0
LINE
  8
0
 10
231.913
 20
-234.619
 11
232.357
 21
-234.41
  0
LINE
  8
0
 10
232.357
 20
-234.41
 11
232.778
 21
-234.157
  0
LINE
  8
0
 10
232.778
 20
-234.157
 11
233.172
 21
-233.865
  0
LINE
  8
0
 10
233.172
 20
-233.865
 11
233.536
 21
-233.536
  0
LINE
  8
0
 10
233.536
 20
-233.536
 11
233.865
 21
-233.172
  0
LINE
  8
0
 10
233.865
 20
-233.172
 11
234.157
 21
-232.778
  0
LINE
  8
0
 10
234.157
 20
-232.778
 11
234.41
 21
-232.357
  0
LINE
  8
0
 10
234.41
 20
-232.357
 11
234.619
 21
-231.913
  0
LINE
  8
0
 10
234.619
 20
-231.913
 11
234.785
 21
-231.451
  0
LINE
  8
0
 10
234.785
 20
-231.451
 11
234.904
 21
-230.975
  0
LINE
  8
0
 10
234.904
 20
-230.975
 11
234.976
 21
-230.49
  0
LINE
  8
0
 10
234.976
 20
-230.49
 11
235
 21
-230
  0
LINE
  8
0
 10
235
 20
-230
 11
235
 21
-100
  0
LINE
  8
0
 10
235
 20
-100
 11
225
 21
-100
  0
LINE
  8
0
 10
225
 20
-100
 11
224.51
 21
-99.9759
  0
LINE
  8
0
 10
224.51
 20
-99.9759
 11
224.025
 21
-99.9039
  0
LINE
  8
0
 10
224.025
 20
-99.9039
 11
223.549
 21
-99.7847
  0
LINE
  8
0
 10
223.549
 20
-99.7847
 11
223.087
 21
-99.6194
  0
LINE
  8
0
 10
223.087
 20
-99.6194
 11
222.643
 21
-99.4096
  0
LINE
  8
0
 10
222.643
 20
-99.4096
 11
222.222
 21
-99.1573
  0
LINE
  8
0
 10
222.222
 20
-99.1573
 11
221.828
 21
-98.8651
  0
LINE
  8
0
 10
221.828
 20
-98.8651
 11
221.464
 21
-98.5355
  0
LINE
  8
0
 10
221.464
 20
-98.5355
 11
221.135
 21
-98.172
  0
LINE
  8
0
 10
221.135
 20
-98.172
 11
220.843
 21
-97.7778
  0
LINE
  8
0
 10
220.843
 20
-97.7778
 11
220.59
 21
-97.357
  0
LINE
  8
0
 10
220.59
 20
-97.357
 11
220.381
 21
-96.9134
  0
LINE
  8
0
 10
220.381
 20
-96.9134
 11
220.215
 21
-96.4514
  0
LINE
  8
0
 10
220.215
 20
-96.4514
 11
220.096
 21
-95.9754
  0
LINE
  8
0
 10
220.096
 20
-95.9754
 11
220.024
 21
-95.4901
  0
LINE
  8
0
 10
220.024
 20
-95.4901
 11
220
 21
-95
  0
LINE
  8
0
 10
220
 20
-95
 11
220
 21
-35
  0
LINE
  8
0
 10
220
 20
-35
 11
220.024
 21
-34.5099
  0
LINE
  8
0
 10
220.024
 20
-34.5099
 11
220.096
 21
-34.0245
  0
LINE
  8
0
 10
220.096
 20
-34.0245
 11
220.215
 21
-33.5486
  0
LINE
  8
0
 10
220.215
 20
-33.5486
 11
220.381
 21
-33.0866
  0
LINE
  8
0
 10
220.381
 20
-33.0866
 11
220.59
 21
-32.643
  0
LINE
  8
0
 10
220.59
 20
-32.643
 11
220.843
 21
-32.2221
  0
LINE
  8
0
 10
220.843
 20
-32.2221
 11
221.135
 21
-31.828
  0
LINE
  8
0
 10
221.135
 20
-31.828
 11
221.464
 21
-31.4645
  0
LINE
  8
0
 10
221.464
 20
-31.4645
 11
221.828
 21
-31.1349
  0
LINE
  8
0
 10
221.828
 20
-31.1349
 11
222.222
 21
-30.8427
  0
LINE
  8
0
 10
222.222
 20
-30.8427
 11
222.643
 21
-30.5904
  0
LINE
  8
0
 10
222.643
 20
-30.5904
 11
223.087
 21
-30.3806
  0
LINE
  8
0
 10
223.087
 20
-30.3806
 11
223.549
 21
-30.2153
  0
LINE
  8
0
 10
223.549
 20
-30.2153
 11
224.025
 21
-30.0961
  0
LINE
  8
0
 10
224.025
 20
-30.0961
 11
224.51
 21
-30.0241
  0
LINE
  8
0
 10
224.51
 20
-30.0241
 11
225
 21
-30
  0
LINE
  8
0
 10
225
 20
-30
 11
235
 21
-30
  0
LINE
  8
0
 10
235
 20
-30
 11
235
 21
30
  0
LINE
  8
0
 10
235
 20
30
 11
225
 21
30
  0
LINE
  8
0
 10
225
 20
30
 11
224.51
 21
30.0241
  0
LINE
  8
0
 10
224.51
 20
30.0241
 11
224.025
 21
30.0961
  0
LINE
  8
0
 10
224.025
 20
30.0961
 11
223.549
 21
30.2153
  0
LINE
  8
0
 10
223.549
 20
30.2153
 11
223.087
 21
30.3806
  0
LINE
  8
0
 10
223.087
 20
30.3806
 11
222.643
 21
30.5904
  0
LINE
  8
0
 10
222.643
 20
30.5904
 11
222.222
 21
30.8427
  0
LINE
  8
0
 10
222.222
 20
30.8427
 11
221.828
 21
31.1349
  0
LINE
  8
0
 10
221.828
 20
31.1349
 11
221.464
 21
31.4645
  0
LINE
  8
0
 10
221.464
 20
31.4645
 11
221.135
 21
31.828
  0
LINE
  8
0
 10
221.135
 20
31.828
 11
220.843
 21
32.2221
  0
LINE
  8
0
 10
220.843
 20
32.2221
 11
220.59
 21
32.643
  0
LINE
  8
0
 10
220.59
 20
32.643
 11
220.381
 21
33.0866
  0
LINE
  8
0
 10
220.381
 20
33.0866
 11
220.215
 21
33.5486
  0
LINE
  8
0
 10
220.215
 20
33.5486
 11
220.096
 21
34.0245
  0
LINE
  8
0
 10
220.096
 20
34.0245
 11
220.024
 21
34.5099
  0
LINE
  8
0
 10
220.024
 20
34.5099
 11
220
 21
35
  0
LINE
  8
0
 10
220
 20
35
 11
220
 21
95
  0
LINE
  8
0
 10
220
 20
95
 11
220.024
 21
95.4901
  0
LINE
  8
0
 10
220.024
 20
95.4901
 11
220.096
 21
95.9754
  0
LINE
  8
0
 10
220.096
 20
95.9754
 11
220.215
 21
96.4514
  0
LINE
  8
0
 10
220.215
 20
96.4514
 11
220.381
 21
96.9134
  0
LINE
  8
0
 10
220.381
 20
96.9134
 11
220.59
 21
97.357
  0
LINE
  8
0
 10
220.59
 20
97.357
 11
220.843
 21
97.7778
  0
LINE
  8
0
 10
220.843
 20
97.7778
 11
221.135
 21
98.172
  0
LINE
  8
0
 10
221.135
 20
98.172
 11
221.464
 21
98.5355
  0
LINE
  8
0
 10
221.464
 20
98.5355
 11
221.828
 21
98.8651
  0
LINE
  8
0
 10
221.828
 20
98.8651
 11
222.222
 21
99.1573
  0
LINE
  8
0
 10
222.222
 20
99.1573
 11
222.643
 21
99.4096
  0
LINE
  8
0
 10
222.643
 20
99.4096
 11
223.087
 21
99.6194
  0
LINE
  8
0
 10
223.087
 20
99.6194
 11
223.549
 21
99.7847
  0
LINE
  8
0
 10
223.549
 20
99.7847
 11
224.025
 21
99.9039
  0
LINE
  8
0
 10
224.025
 20
99.9039
 11
224.51
 21
99.9759
  0
LINE
  8
0
 10
224.51
 20
99.9759
 11
225
 21
100
  0
LINE
  8
0
 10
225
 20
100
 11
235
 21
100
  0
LINE
  8
0
 10
235
 20
100
 11
235
 21
230
  0
LINE
  8
0
 10
235
 20
230
 11
234.976
 21
230.49
  0
LINE
  8
0
 10
234.976
 20
230.49
 11
234.904
 21
230.975
  0
LINE
  8
0
 10
234.904
 20
230.975
 11
234.785
 21
231.451
  0
LINE
  8
0
 10
234.785
 20
231.451
 11
234.619
 21
231.913
  0
LINE
  8
0
 10
234.619
 20
231.913
 11
234.41
 21
232.357
  0
LINE
  8
0
 10
234.41
 20
232.357
 11
234.157
 21
232.778
  0
LINE
  8
0
 10
234.157
 20
232.778
 11
233.865
 21
233.172
  0
LINE
  8
0
 10
233.865
 20
233.172
 11
233.536
 21
233.536
  0
LINE
  8
0
 10
233.536
 20
233.536
 11
233.172
 21
233.865
  0
LINE
  8
0
 10
233.172
 20
233.865
 11
232.778
 21
234.157
  0
LINE
  8
0
 10
232.778
 20
234.157
 11
232.357
 21
234.41
  0
LINE
  8
0
 10
232.357
 20
234.41
 11
231.913
 21
234.619
  0
LINE
  8
0
 10
231.913
 20
234.619
 11
231.451
 21
234.785
  0
LINE
  8
0
 10
231.451
 20
234.785
 11
230.975
 21
234.904
  0
LINE
  8
0
 10
230.975
 20
234.904
 11
230.49
 21
234.976
  0
LINE
  8
0
 10
230.49
 20
234.976
 11
230
 21
235
  0
LINE
  8
0
 10
230
 20
235
 11
-230
 21
235
  0
LINE
  8
0
 10
-230
 20
235
 11
-230.49
 21
234.976
  0
LINE
  8
0
 10
-230.49
 20
234.976
 11
-230.975
 21
234.904
  0
LINE
  8
0
 10
-230.975
 20
234.904
 11
-231.451
 21
234.785
  0
LINE
  8
0
 10
-231.451
 20
234.785
 11
-231.913
 21
234.619
  0
LINE
  8
0
 10
-231.913
 20
234.619
 11
-232.357
 21
234.41
  0
LINE
  8
0
 10
-232.357
 20
234.41
 11
-232.778
 21
234.157
  0
LINE
  8
0
 10
-232.778
 20
234.157
 11
-233.172
 21
233.865
  0
LINE
  8
0
 10
-233.172
 20
233.865
 11
-233.536
 21
233.536
  0
LINE
  8
0
 10
-233.536
 20
233.536
 11
-233.865
 21
233.172
  0
LINE
  8
0
 10
-233.865
 20
233.172
 11
-234.157
 21
232.778
  0
LINE
  8
0
 10
-234.157
 20
232.778
 11
-234.41
 21
232.357
  0
LINE
  8
0
 10
-234.41
 20
232.357
 11
-234.619
 21
231.913
  0
LINE
  8
0
 10
-234.619
 20
231.913
 11
-234.785
 21
231.451
  0
LINE
  8
0
 10
-234.785
 20
231.451
 11
-234.904
 21
230.975
  0
LINE
  8
0
 10
-234.904
 20
230.975
 11
-234.976
 21
230.49
  0
LINE
  8
0
 10
-234.976
 20
230.49
 11
-235
 21
230
  0
LINE
  8
0
 10
-235
 20
230
 11
-235
 21
100
  0
LINE
  8
0
 10
-235
 20
100
 11
-225
 21
100
  0
LINE
  8
0
 10
-225
 20
100
 11
-224.51
 21
99.9759
  0
LINE
  8
0
 10
-224.51
 20
99.9759
 11
-224.025
 21
99.9039
  0
LINE
  8
0
 10
-224.025
 20
99.9039
 11
-223.549
 21
99.7847
  0
LINE
  8
0
 10
-223.549
 20
99.7847
 11
-223.087
 21
99.6194
  0
LINE
  8
0
 10
-223.087
 20
99.6194
 11
-222.643
 21
99.4096
  0
LINE
  8
0
 10
-222.643
 20
99.4096
 11
-222.222
 21
99.1573
  0
LINE
  8
0
 10
-222.222
 20
99.1573
 11
-221.828
 21
98.8651
  0
LINE
  8
0
 10
-221.828
 20
98.8651
 11
-221.464
 21
98.5355
  0
LINE
  8
0
 10
-221.464
 20
98.5355
 11
-221.135
 21
98.172
  0
LINE
  8
0
 10
-221.135
 20
98.172
 11
-220.843
 21
97.7778
  0
LINE
  8
0
 10
-220.843
 20
97.7778
 11
-220.59
 21
97.357
  0
LINE
  8
0
 10
-220.59
 20
97.357
 11
-220.381
 21
96.9134
  0
LINE
  8
0
 10
-220.381
 20
96.9134
 11
-220.215
 21
96.4514
  0
LINE
  8
0
 10
-220.215
 20
96.4514
 11
-220.096
 21
95.9754
  0
LINE
  8
0
 10
-220.096
 20
95.9754
 11
-220.024
 21
95.4901
  0
LINE
  8
0
 10
-220.024
 20
95.4901
 11
-220
 21
95
  0
LINE
  8
0
 10
-220
 20
95
 11
-220
 21
35
  0
LINE
  8
0
 10
-220
 20
35
 11
-220.024
 21
34.5099
  0
LINE
  8
0
 10
-220.024
 20
34.5099
 11
-220.096
 21
34.0245
  0
LINE
  8
0
 10
-220.096
 20
34.0245
 11
-220.215
 21
33.5486
  0
LINE
  8
0
 10
-220.215
 20
33.5486
 11
-220.381
 21
33.0866
  0
LINE
  8
0
 10
-220.381
 20
33.0866
 11
-220.59
 21
32.643
  0
LINE
  8
0
 10
-220.59
 20
32.643
 11
-220.843
 21
32.2221
  0
LINE
  8
0
 10
-220.843
 20
32.2221
 11
-221.135
 21
31.828
  0
LINE
  8
0
 10
-221.135
 20
31.828
 11
-221.464
 21
31.4645
  0
LINE
  8
0
 10
-221.464
 20
31.4645
 11
-221.828
 21
31.1349
  0
LINE
  8
0
 10
-221.828
 20
31.1349
 11
-222.222
 21
30.8427
  0
LINE
  8
0
 10
-222.222
 20
30.8427
 11
-222.643
 21
30.5904
  0
LINE
  8
0
 10
-222.643
 20
30.5904
 11
-223.087
 21
30.3806
  0
LINE
  8
0
 10
-223.087
 20
30.3806
 11
-223.549
 21
30.2153
  0
LINE
  8
0
 10
-223.549
 20
30.2153
 11
-224.025
 21
30.0961
  0
LINE
  8
0
 10
-224.025
 20
30.0961
 11
-224.51
 21
30.0241
  0
LINE
  8
0
 10
-224.51
 20
30.0241
 11
-225
 21
30
  0
LINE
  8
0
 10
-225
 20
30
 11
-235
 21
30
  0
LINE
  8
0
 10
-235
 20
30
 11
-235
 21
-30
  0
LINE
  8
0
 10
-235
 20
-30
 11
-225
 21
-30
  0
LINE
  8
0
 10
-225
 20
-30
 11
-224.51
 21
-30.0241
  0
LINE
  8
0
 10
-224.51
 20
-30.0241
 11
-224.025
 21
-30.0961
  0
LINE
  8
0
 10
-224.025
 20
-30.0961
 11
-223.549
 21
-30.2153
  0
LINE
  8
0
 10
-223.549
 20
-30.2153
 11
-223.087
 21
-30.3806
  0
LINE
  8
0
 10
-223.087
 20
-30.3806
 11
-222.643
 21
-30.5904
  0
LINE
  8
0
 10
-222.643
 20
-30.5904
 11
-222.222
 21
-30.8427
  0
LINE
  8
0
 10
-222.222
 20
-30.8427
 11
-221.828
 21
-31.1349
  0
LINE
  8
0
 10
-221.828
 20
-31.1349
 11
-221.464
 21
-31.4645
  0
LINE
  8
0
 10
-221.464
 20
-31.4645
 11
-221.135
 21
-31.828
  0
LINE
  8
0
 10
-221.135
 20
-31.828
 11
-220.843
 21
-32.2221
  0
LINE
  8
0
 10
-220.843
 20
-32.2221
 11
-220.59
 21
-32.643
  0
LINE
  8
0
 10
-220.59
 20
-32.643
 11
-220.381
 21
-33.0866
  0
LINE
  8
0
 10
-220.381
 20
-33.0866
 11
-220.215
 21
-33.5486
  0
LINE
  8
0
 10
-220.215
 20
-33.5486
 11
-220.096
 21
-34.0245
  0
LINE
  8
0
 10
-220.096
 20
-34.0245
 11
-220.024
 21
-34.5099
  0
LINE
  8
0
 10
-220.024
 20
-34.5099
 11
-220
 21
-35
  0
LINE
  8
0
 10
-220
 20
-35
 11
-220
 21
-95
  0
LINE
  8
0
 10
-220
 20
-95
 11
-220.024
 21
-95.4901
  0
LINE
  8
0
 10
-220.024
 20
-95.4901
 11
-220.096
 21
-95.9754
  0
LINE
  8
0
 10
-220.096
 20
-95.9754
 11
-220.215
 21
-96.4514
  0
LINE
  8
0
 10
-220.215
 20
-96.4514
 11
-220.381
 21
-96.9134
  0
LINE
  8
0
 10
-220.381
 20
-96.9134
 11
-220.59
 21
-97.357
  0
LINE
  8
0
 10
-220.59
 20
-97.357
 11
-220.843
 21
-97.7778
  0
LINE
  8
0
 10
-220.843
 20
-97.7778
 11
-221.135
 21
-98.172
  0
LINE
  8
0
 10
-221.135
 20
-98.172
 11
-221.464
 21
-98.5355
  0
LINE
  8
0
 10
-221.464
 20
-98.5355
 11
-221.828
 21
-98.8651
  0
LINE
  8
0
 10
-221.828
 20
-98.8651
 11
-222.222
 21
-99.1573
  0
LINE
  8
0
 10
-222.222
 20
-99.1573
 11
-222.643
 21
-99.4096
  0
LINE
  8
0
 10
-222.643
 20
-99.4096
 11
-223.087
 21
-99.6194
  0
LINE
  8
0
 10
-223.087
 20
-99.6194
 11
-223.549
 21
-99.7847
  0
LINE
  8
0
 10
-223.549
 20
-99.7847
 11
-224.025
 21
-99.9039
  0
LINE
  8
0
 10
-224.025
 20
-99.9039
 11
-224.51
 21
-99.9759
  0
LINE
  8
0
 10
-224.51
 20
-99.9759
 11
-225
 21
-100
  0
LINE
  8
0
 10
-225
 20
-100
 11
-235
 21
-100
  0
LINE
  8
0
 10
-235
 20
-100
 11
-235
 21
-230
  0
LINE
  8
0
 10
-235
 20
-230
 11
-234.976
 21
-230.49
  0
LINE
  8
0
 10
-234.976
 20
-230.49
 11
-234.904
 21
-230.975
  0
LINE
  8
0
 10
-234.904
 20
-230.975
 11
-234.785
 21
-231.451
  0
LINE
  8
0
 10
-234.785
 20
-231.451
 11
-234.619
 21
-231.913
  0
LINE
  8
0
 10
-234.619
 20
-231.913
 11
-234.41
 21
-232.357
  0
LINE
  8
0
 10
-234.41
 20
-232.357
 11
-234.157
 21
-232.778
  0
LINE
  8
0
 10
-234.157
 20
-232.778
 11
-233.865
 21
-233.172
  0
LINE
  8
0
 10
-233.865
 20
-233.172
 11
-233.536
 21
-233.536
  0
LINE
  8
0
 10
-233.536
 20
-233.536
 11
-233.172
 21
-233.865
  0
LINE
  8
0
 10
-233.172
 20
-233.865
 11
-232.778
 21
-234.157
  0
LINE
  8
0
 10
-232.778
 20
-234.157
 11
-232.357
 21
-234.41
  0
LINE
  8
0
 10
-232.357
 20
-234.41
 11
-231.913
 21
-234.619
  0
LINE
  8
0
 10
-231.913
 20
-234.619
 11
-231.451
 21
-234.785
  0
LINE
  8
0
 10
-231.451
 20
-234.785
 11
-230.975
 21
-234.904
  0
LINE
  8
0
 10
-230.975
 20
-234.904
 11
-230.49
 21
-234.976
  0
LINE
  8
0
 10
-230.49
 20
-234.976
 11
-230
 21
-235
  0
LINE
  8
0
 10
-230
 20
-235
 11
230
 21
-235
  0
LINE
  8
0
 10
230
 20
-235
 11
230.49
 21
-234.976
  0
LINE
  8
0
 10
-95
 20
125
 11
-95.4901
 21
125.024
  0
LINE
  8
0
 10
-95.4901
 20
125.024
 11
-95.9754
 21
125.096
  0
LINE
  8
0
 10
-95.9754
 20
125.096
 11
-96.4514
 21
125.215
  0
LINE
  8
0
 10
-96.4514
 20
125.215
 11
-96.9134
 21
125.381
  0
LINE
  8
0
 10
-96.9134
 20
125.381
 11
-97.357
 21
125.59
  0
LINE
  8
0
 10
-97.357
 20
125.59
 11
-97.7778
 21
125.843
  0
LINE
  8
0
 10
-97.7778
 20
125.843
 11
-98.172
 21
126.135
  0
LINE
  8
0
 10
-98.172
 20
126.135
 11
-98.5355
 21
126.464
  0
LINE
  8
0
 10
-98.5355
 20
126.464
 11
-98.8651
 21
126.828
  0
LINE
  8
0
 10
-98.8651
 20
126.828
 11
-99.1573
 21
127.222
  0
LINE
  8
0
 10
-99.1573
 20
127.222
 11
-99.4096
 21
127.643
  0
LINE
  8
0
 10
-99.4096
 20
127.643
 11
-99.6194
 21
128.087
  0
LINE
  8
0
 10
-99.6194
 20
128.087
 11
-99.7847
 21
128.549
  0
LINE
  8
0
 10
-99.7847
 20
128.549
 11
-99.9039
 21
129.025
  0
LINE
  8
0
 10
-99.9039
 20
129.025
 11
-99.9759
 21
129.51
  0
LINE
  8
0
 10
-99.9759
 20
129.51
 11
-100
 21
130
  0
LINE
  8
0
 10
-100
 20
130
 11
-100
 21
150
  0
LINE
  8
0
 10
-100
 20
150
 11
-99.9759
 21
150.49
  0
LINE
  8
0
 10
-99.9759
 20
150.49
 11
-99.9039
 21
150.975
  0
LINE
  8
0
 10
-99.9039
 20
150.975
 11
-99.7847
 21
151.451
  0
LINE
  8
0
 10
-99.7847
 20
151.451
 11
-99.6194
 21
151.913
  0
LINE
  8
0
 10
-99.6194
 20
151.913
 11
-99.4096
 21
152.357
  0
LINE
  8
0
 10
-99.4096
 20
152.357
 11
-99.1573
 21
152.778
  0
LINE
  8
0
 10
-99.1573
 20
152.778
 11
-98.8651
 21
153.172
  0
LINE
  8
0
 10
-98.8651
 20
153.172
 11
-98.5355
 21
153.536
  0
LINE
  8
0
 10
-98.5355
 20
153.536
 11
-98.172
 21
153.865
  0
LINE
  8
0
 10
-98.172
 20
153.865
 11
-97.7778
 21
154.157
  0
LINE
  8
0
 10
-97.7778
 20
154.157
 11
-97.357
 21
154.41
  0
LINE
  8
0
 10
-97.357
 20
154.41
 11
-96.9134
 21
154.619
  0
LINE
  8
0
 10
-96.9134
 20
154.619
 11
-96.4514
 21
154.785
  0
LINE
  8
0
 10
-96.4514
 20
154.785
 11
-95.9754
 21
154.904
  0
LINE
  8
0
 10
-95.9754
 20
154.904
 11
-95.4901
 21
154.976
  0
LINE
  8
0
 10
-95.4901
 20
154.976
 11
-95
 21
155
  0
LINE
  8
0
 10
-95
 20
155
 11
-65
 21
155
  0
LINE
  8
0
 10
-65
 20
155
 11
-64.5099
 21
154.976
  0
LINE
  8
0
 10
-64.5099
 20
154.976
 11
-64.0246
 21
154.904
  0
LINE
  8
0
 10
-64.0246
 20
154.904
 11
-63.5486
 21
154.785
  0
LINE
  8
0
 10
-63.5486
 20
154.785
 11
-63.0866
 21
154.619
  0
LINE
  8
0
 10
-63.0866
 20
154.619
 11
-62.643
 21
154.41
  0
LINE
  8
0
 10
-62.643
 20
154.41
 11
-62.2221
 21
154.157
  0
LINE
  8
0
 10
-62.2221
 20
154.157
 11
-61.828
 21
153.865
  0
LINE
  8
0
 10
-61.828
 20
153.865
 11
-61.4645
 21
153.536
  0
LINE
  8
0
 10
-61.4645
 20
153.536
 11
-61.1349
 21
153.172
  0
LINE
  8
0
 10
-61.1349
 20
153.172
 11
-60.8427
 21
152.778
  0
LINE
  8
0
 10
-60.8427
 20
152.778
 11
-60.5904
 21
152.357
  0
LINE
  8
0
 10
-60.5904
 20
152.357
 11
-60.3806
 21
151.913
  0
LINE
  8
0
 10
-60.3806
 20
151.913
 11
-60.2153
 21
151.451
  0
LINE
  8
0
 10
-60.2153
 20
151.451
 11
-60.0961
 21
150.975
  0
LINE
  8
0
 10
-60.0961
 20
150.975
 11
-60.0241
 21
150.49
  0
LINE
  8
0
 10
-60.0241
 20
150.49
 11
-60
 21
150
  0
LINE
  8
0
 10
-60
 20
150
 11
-60
 21
130
  0
LINE
  8
0
 10
-60
 20
130
 11
-60.0241
 21
129.51
  0
LINE
  8
0
 10
-60.0241
 20
129.51
 11
-60.0961
 21
129.025
  0
LINE
  8
0
 10
-60.0961
 20
129.025
 11
-60.2153
 21
128.549
  0
LINE
  8
0
 10
-60.2153
 20
128.549
 11
-60.3806
 21
128.087
  0
LINE
  8
0
 10
-60.3806
 20
128.087
 11
-60.5904
 21
127.643
  0
LINE
  8
0
 10
-60.5904
 20
127.643
 11
-60.8427
 21
127.222
  0
LINE
  8
0
 10
-60.8427
 20
127.222
 11
-61.1349
 21
126.828
  0
LINE
  8
0
 10
-61.1349
 20
126.828
 11
-61.4645
 21
126.464
  0
LINE
  8
0
 10
-61.4645
 20
126.464
 11
-61.828
 21
126.135
  0
LINE
  8
0
 10
-61.828
 20
126.135
 11
-62.2221
 21
125.843
  0
LINE
  8
0
 10
-62.2221
 20
125.843
 11
-62.643
 21
125.59
  0
LINE
  8
0
 10
-62.643
 20
125.59
 11
-63.0866
 21
125.381
  0
LINE
  8
0
 10
-63.0866
 20
125.381
 11
-63.5486
 21
125.215
  0
LINE
  8
0
 10
-63.5486
 20
125.215
 11
-64.0246
 21
125.096
  0
LINE
  8
0
 10
-64.0246
 20
125.096
 11
-64.5099
 21
125.024
  0
LINE
  8
0
 10
-64.5099
 20
125.024
 11
-65
 21
125
  0
LINE
  8
0
 10
-65
 20
125
 11
-95
 21
125
  0
LINE
  8
0
 10
214.843
 20
43.4077
 11
214.688
 21
43.4307
  0
LINE
  8
0
 10
214.688
 20
43.4307
 11
214.536
 21
43.4689
  0
LINE
  8
0
 10
214.536
 20
43.4689
 11
214.388
 21
43.5218
  0
LINE
  8
0
 10
214.388
 20
43.5218
 11
214.246
 21
43.5889
  0
LINE
  8
0
 10
214.246
 20
43.5889
 11
214.111
 21
43.6696
  0
LINE
  8
0
 10
214.111
 20
43.6696
 11
213.985
 21
43.7632
  0
LINE
  8
0
 10
213.985
 20
43.7632
 11
213.869
 21
43.8686
  0
LINE
  8
0
 10
213.869
 20
43.8686
 11
213.763
 21
43.985
  0
LINE
  8
0
 10
213.763
 20
43.985
 11
213.67
 21
44.1111
  0
LINE
  8
0
 10
213.67
 20
44.1111
 11
213.589
 21
44.2458
  0
LINE
  8
0
 10
213.589
 20
44.2458
 11
213.522
 21
44.3877
  0
LINE
  8
0
 10
213.522
 20
44.3877
 11
213.469
 21
44.5355
  0
LINE
  8
0
 10
213.469
 20
44.5355
 11
213.431
 21
44.6879
  0
LINE
  8
0
 10
213.431
 20
44.6879
 11
213.408
 21
44.8432
  0
LINE
  8
0
 10
213.408
 20
44.8432
 11
213.4
 21
45
  0
LINE
  8
0
 10
213.4
 20
45
 11
213.408
 21
45.1568
  0
LINE
  8
0
 10
213.408
 20
45.1568
 11
213.431
 21
45.3121
  0
LINE
  8
0
 10
213.431
 20
45.3121
 11
213.469
 21
45.4644
  0
LINE
  8
0
 10
213.469
 20
45.4644
 11
213.522
 21
45.6123
  0
LINE
  8
0
 10
213.522
 20
45.6123
 11
213.589
 21
45.7542
  0
LINE
  8
0
 10
213.589
 20
45.7542
 11
213.67
 21
45.8889
  0
LINE
  8
0
 10
213.67
 20
45.8889
 11
213.763
 21
46.015
  0
LINE
  8
0
 10
213.763
 20
46.015
 11
213.869
 21
46.1314
  0
LINE
  8
0
 10
213.869
 20
46.1314
 11
213.985
 21
46.2368
  0
LINE
  8
0
 10
213.985
 20
46.2368
 11
214.111
 21
46.3304
  0
LINE
  8
0
 10
214.111
 20
46.3304
 11
214.246
 21
46.4111
  0
LINE
  8
0
 10
214.246
 20
46.4111
 11
214.388
 21
46.4782
  0
LINE
  8
0
 10
214.388
 20
46.4782
 11
214.536
 21
46.5311
  0
LINE
  8
0
 10
214.536
 20
46.5311
 11
214.688
 21
46.5692
  0
LINE
  8
0
 10
214.688
 20
46.5692
 11
214.843
 21
46.5923
  0
LINE
  8
0
 10
214.843
 20
46.5923
 11
215
 21
46.6
  0
LINE
  8
0
 10
215
 20
46.6
 11
215.157
 21
46.5923
  0
LINE
  8
0
 10
215.157
 20
46.5923
 11
215.312
 21
46.5692
  0
LINE
  8
0
 10
215.312
 20
46.5692
 11
215.464
 21
46.5311
  0
LINE
  8
0
 10
215.464
 20
46.5311
 11
215.612
 21
46.4782
  0
LINE
  8
0
 10
215.612
 20
46.4782
 11
215.754
 21
46.4111
  0
LINE
  8
0
 10
215.754
 20
46.4111
 11
215.889
 21
46.3304
  0
LINE
  8
0
 10
215.889
 20
46.3304
 11
216.015
 21
46.2368
  0
LINE
  8
0
 10
216.015
 20
46.2368
 11
216.131
 21
46.1314
  0
LINE
  8
0
 10
216.131
 20
46.1314
 11
216.237
 21
46.015
  0
LINE
  8
0
 10
216.237
 20
46.015
 11
216.33
 21
45.8889
  0
LINE
  8
0
 10
216.33
 20
45.8889
 11
216.411
 21
45.7542
  0
LINE
  8
0
 10
216.411
 20
45.7542
 11
216.478
 21
45.6123
  0
LINE
  8
0
 10
216.478
 20
45.6123
 11
216.531
 21
45.4644
  0
LINE
  8
0
 10
216.531
 20
45.4644
 11
216.569
 21
45.3121
  0
LINE
  8
0
 10
216.569
 20
45.3121
 11
216.592
 21
45.1568
  0
LINE
  8
0
 10
216.592
 20
45.1568
 11
216.6
 21
45
  0
LINE
  8
0
 10
216.6
 20
45
 11
216.592
 21
44.8432
  0
LINE
  8
0
 10
216.592
 20
44.8432
 11
216.569
 21
44.6879
  0
LINE
  8
0
 10
216.569
 20
44.6879
 11
216.531
 21
44.5355
  0
LINE
  8
0
 10
216.531
 20
44.5355
 11
216.478
 21
44.3877
  0
LINE
  8
0
 10
216.478
 20
44.3877
 11
216.411
 21
44.2458
  0
LINE
  8
0
 10
216.411
 20
44.2458
 11
216.33
 21
44.1111
  0
LINE
  8
0
 10
216.33
 20
44.1111
 11
216.237
 21
43.985
  0
LINE
  8
0
 10
216.237
 20
43.985
 11
216.131
 21
43.8686
  0
LINE
  8
0
 10
216.131
 20
43.8686
 11
216.015
 21
43.7632
  0
LINE
  8
0
 10
216.015
 20
43.7632
 11
215.889
 21
43.6696
  0
LINE
  8
0
 10
215.889
 20
43.6696
 11
215.754
 21
43.5889
  0
LINE
  8
0
 10
215.754
 20
43.5889
 11
215.612
 21
43.5218
  0
LINE
  8
0
 10
215.612
 20
43.5218
 11
215.464
 21
43.4689
  0
LINE
  8
0
 10
215.464
 20
43.4689
 11
215.312
 21
43.4307
  0
LINE
  8
0
 10
215.312
 20
43.4307
 11
215.157
 21
43.4077
  0
LINE
  8
0
 10
215.157
 20
43.4077
 11
215
 21
43.4
  0
LINE
  8
0
 10
215
 20
43.4
 11
214.843
 21
43.4077
  0
LINE
  8
0
 10
-215.157
 20
43.4077
 11
-215.312
 21
43.4307
  0
LINE
  8
0
 10
-215.312
 20
43.4307
 11
-215.464
 21
43.4689
  0
LINE
  8
0
 10
-215.464
 20
43.4689
 11
-215.612
 21
43.5218
  0
LINE
  8
0
 10
-215.612
 20
43.5218
 11
-215.754
 21
43.5889
  0
LINE
  8
0
 10
-215.754
 20
43.5889
 11
-215.889
 21
43.6696
  0
LINE
  8
0
 10
-215.889
 20
43.6696
 11
-216.015
 21
43.7632
  0
LINE
  8
0
 10
-216.015
 20
43.7632
 11
-216.131
 21
43.8686
  0
LINE
  8
0
 10
-216.131
 20
43.8686
 11
-216.237
 21
43.985
  0
LINE
  8
0
 10
-216.237
 20
43.985
 11
-216.33
 21
44.1111
  0
LINE
  8
0
 10
-216.33
 20
44.1111
 11
-216.411
 21
44.2458
  0
LINE
  8
0
 10
-216.411
 20
44.2458
 11
-216.478
 21
44.3877
  0
LINE
  8
0
 10
-216.478
 20
44.3877
 11
-216.531
 21
44.5355
  0
LINE
  8
0
 10
-216.531
 20
44.5355
 11
-216.569
 21
44.6879
  0
LINE
  8
0
 10
-216.569
 20
44.6879
 11
-216.592
 21
44.8432
  0
LINE
  8
0
 10
-216.592
 20
44.8432
 11
-216.6
 21
45
  0
LINE
  8
0
 10
-216.6
 20
45
 11
-216.592
 21
45.1568
  0
LINE
  8
0
 10
-216.592
 20
45.1568
 11
-216.569
 21
45.3121
  0
LINE
  8
0
 10
-216.569
 20
45.3121
 11
-216.531
 21
45.4644
  0
LINE
  8
0
 10
-216.531
 20
45.4644
 11
-216.478
 21
45.6123
  0
LINE
  8
0
 10
-216.478
 20
45.6123
 11
-216.411
 21
45.7542
  0
LINE
  8
0
 10
-216.411
 20
45.7542
 11
-216.33
 21
45.8889
  0
LINE
  8
0
 10
-216.33
 20
45.8889
 11
-216.237
 21
46.015
  0
LINE
  8
0
 10
-216.237
 20
46.015
 11
-216.131
 21
46.1314
  0
LINE
  8
0
 10
-216.131
 20
46.1314
 11
-216.015
 21
46.2368
  0
LINE
  8
0
 10
-216.015
 20
46.2368
 11
-215.889
 21
46.3304
  0
LINE
  8
0
 10
-215.889
 20
46.3304
 11
-215.754
 21
46.4111
  0
LINE
  8
0
 10
-215.754
 20
46.4111
 11
-215.612
 21
46.4782
  0
LINE
  8
0
 10
-215.612
 20
46.4782
 11
-215.464
 21
46.5311
  0
LINE
  8
0
 10
-215.464
 20
46.5311
 11
-215.312
 21
46.5692
  0
LINE
  8
0
 10
-215.312
 20
46.5692
 11
-215.157
 21
46.5923
  0
LINE
  8
0
 10
-215.157
 20
46.5923
 11
-215
 21
46.6
  0
LINE
  8
0
 10
-215
 20
46.6
 11
-214.843
 21
46.5923
  0
LINE
  8
0
 10
-214.843
 20
46.5923
 11
-214.688
 21
46.5692
  0
LINE
  8
0
 10
-214.688
 20
46.5692
 11
-214.536
 21
46.5311
  0
LINE
  8
0
 10
-214.536
 20
46.5311
 11
-214.388
 21
46.4782
  0
LINE
  8
0
 10
-214.388
 20
46.4782
 11
-214.246
 21
46.4111
  0
LINE
  8
0
 10
-214.246
 20
46.4111
 11
-214.111
 21
46.3304
  0
LINE
  8
0
 10
-214.111
 20
46.3304
 11
-213.985
 21
46.2368
  0
LINE
  8
0
 10
-213.985
 20
46.2368
 11
-213.869
 21
46.1314
  0
LINE
  8
0
 10
-213.869
 20
46.1314
 11
-213.763
 21
46.015
  0
LINE
  8
0
 10
-213.763
 20
46.015
 11
-213.67
 21
45.8889
  0
LINE
  8
0
 10
-213.67
 20
45.8889
 11
-213.589
 21
45.7542
  0
LINE
  8
0
 10
-213.589
 20
45.7542
 11
-213.522
 21
45.6123
  0
LINE
  8
0
 10
-213.522
 20
45.6123
 11
-213.469
 21
45.4644
  0
LINE
  8
0
 10
-213.469
 20
45.4644
 11
-213.431
 21
45.3121
  0
LINE
  8
0
 10
-213.431
 20
45.3121
 11
-213.408
 21
45.1568
  0
LINE
  8
0
 10
-213.408
 20
45.1568
 11
-213.4
 21
45
  0
LINE
  8
0
 10
-213.4
 20
45
 11
-213.408
 21
44.8432
  0
LINE
  8
0
 10
-213.408
 20
44.8432
 11
-213.431
 21
44.6879
  0
LINE
  8
0
 10
-213.431
 20
44.6879
 11
-213.469
 21
44.5355
  0
LINE
  8
0
 10
-213.469
 20
44.5355
 11
-213.522
 21
44.3877
  0
LINE
  8
0
 10
-213.522
 20
44.3877
 11
-213.589
 21
44.2458
  0
LINE
  8
0
 10
-213.589
 20
44.2458
 11
-213.67
 21
44.1111
  0
LINE
  8
0
 10
-213.67
 20
44.1111
 11
-213.763
 21
43.985
  0
LINE
  8
0
 10
-213.763
 20
43.985
 11
-213.869
 21
43.8686
  0
LINE
  8
0
 10
-213.869
 20
43.8686
 11
-213.985
 21
43.7632
  0
LINE
  8
0
 10
-213.985
 20
43.7632
 11
-214.111
 21
43.6696
  0
LINE
  8
0
 10
-214.111
 20
43.6696
 11
-214.246
 21
43.5889
  0
LINE
  8
0
 10
-214.246
 20
43.5889
 11
-214.388
 21
43.5218
  0
LINE
  8
0
 10
-214.388
 20
43.5218
 11
-214.536
 21
43.4689
  0
LINE
  8
0
 10
-214.536
 20
43.4689
 11
-214.688
 21
43.4307
  0
LINE
  8
0
 10
-214.688
 20
43.4307
 11
-214.843
 21
43.4077
  0
LINE
  8
0
 10
-214.843
 20
43.4077
 11
-215
 21
43.4
  0
LINE
  8
0
 10
-215
 20
43.4
 11
-215.157
 21
43.4077
  0
LINE
  8
0
 10
214.843
 20
-36.5923
 11
214.688
 21
-36.5692
  0
LINE
  8
0
 10
214.688
 20
-36.5692
 11
214.536
 21
-36.5311
  0
LINE
  8
0
 10
214.536
 20
-36.5311
 11
214.388
 21
-36.4782
  0
LINE
  8
0
 10
214.388
 20
-36.4782
 11
214.246
 21
-36.4111
  0
LINE
  8
0
 10
214.246
 20
-36.4111
 11
214.111
 21
-36.3304
  0
LINE
  8
0
 10
214.111
 20
-36.3304
 11
213.985
 21
-36.2368
  0
LINE
  8
0
 10
213.985
 20
-36.2368
 11
213.869
 21
-36.1314
  0
LINE
  8
0
 10
213.869
 20
-36.1314
 11
213.763
 21
-36.015
  0
LINE
  8
0
 10
213.763
 20
-36.015
 11
213.67
 21
-35.8889
  0
LINE
  8
0
 10
213.67
 20
-35.8889
 11
213.589
 21
-35.7542
  0
LINE
  8
0
 10
213.589
 20
-35.7542
 11
213.522
 21
-35.6123
  0
LINE
  8
0
 10
213.522
 20
-35.6123
 11
213.469
 21
-35.4644
  0
LINE
  8
0
 10
213.469
 20
-35.4644
 11
213.431
 21
-35.3121
  0
LINE
  8
0
 10
213.431
 20
-35.3121
 11
213.408
 21
-35.1568
  0
LINE
  8
0
 10
213.408
 20
-35.1568
 11
213.4
 21
-35
  0
LINE
  8
0
 10
213.4
 20
-35
 11
213.408
 21
-34.8432
  0
LINE
  8
0
 10
213.408
 20
-34.8432
 11
213.431
 21
-34.6879
  0
LINE
  8
0
 10
213.431
 20
-34.6879
 11
213.469
 21
-34.5355
  0
LINE
  8
0
 10
213.469
 20
-34.5355
 11
213.522
 21
-34.3877
  0
LINE
  8
0
 10
213.522
 20
-34.3877
 11
213.589
 21
-34.2458
  0
LINE
  8
0
 10
213.589
 20
-34.2458
 11
213.67
 21
-34.1111
  0
LINE
  8
0
 10
213.67
 20
-34.1111
 11
213.763
 21
-33.985
  0
LINE
  8
0
 10
213.763
 20
-33.985
 11
213.869
 21
-33.8686
  0
LINE
  8
0
 10
213.869
 20
-33.8686
 11
213.985
 21
-33.7632
  0
LINE
  8
0
 10
213.985
 20
-33.7632
 11
214.111
 21
-33.6696
  0
LINE
  8
0
 10
214.111
 20
-33.6696
 11
214.246
 21
-33.5889
  0
LINE
  8
0
 10
214.246
 20
-33.5889
 11
214.388
 21
-33.5218
  0
LINE
  8
0
 10
214.388
 20
-33.5218
 11
214.536
 21
-33.4689
  0
LINE
  8
0
 10
214.536
 20
-33.4689
 11
214.688
 21
-33.4307
  0
LINE
  8
0
 10
214.688
 20
-33.4307
 11
214.843
 21
-33.4077
  0
LINE
  8
0
 10
214.843
 20
-33.4077
 11
215
 21
-33.4
  0
LINE
  8
0
 10
215
 20
-33.4
 11
215.157
 21
-33.4077
  0
LINE
  8
0
 10
215.157
 20
-33.4077
 11
215.312
 21
-33.4307
  0
LINE
  8
0
 10
215.312
 20
-33.4307
 11
215.464
 21
-33.4689
  0
LINE
  8
0
 10
215.464
 20
-33.4689
 11
215.612
 21
-33.5218
  0
LINE
  8
0
 10
215.612
 20
-33.5218
 11
215.754
 21
-33.5889
  0
LINE
  8
0
 10
215.754
 20
-33.5889
 11
215.889
 21
-33.6696
  0
LINE
  8
0
 10
215.889
 20
-33.6696
 11
216.015
 21
-33.7632
  0
LINE
  8
0
 10
216.015
 20
-33.7632
 11
216.131
 21
-33.8686
  0
LINE
  8
0
 10
216.131
 20
-33.8686
 11
216.237
 21
-33.985
  0
LINE
  8
0
 10
216.237
 20
-33.985
 11
216.33
 21
-34.1111
  0
LINE
  8
0
 10
216.33
 20
-34.1111
 11
216.411
 21
-34.2458
  0
LINE
  8
0
 10
216.411
 20
-34.2458
 11
216.478
 21
-34.3877
  0
LINE
  8
0
 10
216.478
 20
-34.3877
 11
216.531
 21
-34.5355
  0
LINE
  8
0
 10
216.531
 20
-34.5355
 11
216.569
 21
-34.6879
  0
LINE
  8
0
 10
216.569
 20
-34.6879
 11
216.592
 21
-34.8432
  0
LINE
  8
0
 10
216.592
 20
-34.8432
 11
216.6
 21
-35
  0
LINE
  8
0
 10
216.6
 20
-35
 11
216.592
 21
-35.1568
  0
LINE
  8
0
 10
216.592
 20
-35.1568
 11
216.569
 21
-35.3121
  0
LINE
  8
0
 10
216.569
 20
-35.3121
 11
216.531
 21
-35.4644
  0
LINE
  8
0
 10
216.531
 20
-35.4644
 11
216.478
 21
-35.6123
  0
LINE
  8
0
 10
216.478
 20
-35.6123
 11
216.411
 21
-35.7542
  0
LINE
  8
0
 10
216.411
 20
-35.7542
 11
216.33
 21
-35.8889
  0
LINE
  8
0
 10
216.33
 20
-35.8889
 11
216.237
 21
-36.015
  0
LINE
  8
0
 10
216.237
 20
-36.015
 11
216.131
 21
-36.1314
  0
LINE
  8
0
 10
216.131
 20
-36.1314
 11
216.015
 21
-36.2368
  0
LINE
  8
0
 10
216.015
 20
-36.2368
 11
215.889
 21
-36.3304
  0
LINE
  8
0
 10
215.889
 20
-36.3304
 11
215.754
 21
-36.4111
  0
LINE
  8
0
 10
215.754
 20
-36.4111
 11
215.612
 21
-36.4782
  0
LINE
  8
0
 10
215.612
 20
-36.4782
 11
215.464
 21
-36.5311
  0
LINE
  8
0
 10
215.464
 20
-36.5311
 11
215.312
 21
-36.5692
  0
LINE
  8
0
 10
215.312
 20
-36.5692
 11
215.157
 21
-36.5923
  0
LINE
  8
0
 10
215.157
 20
-36.5923
 11
215
 21
-36.6
  0
LINE
  8
0
 10
215
 20
-36.6
 11
214.843
 21
-36.5923
  0
LINE
  8
0
 10
-215.157
 20
-36.5923
 11
-215.312
 21
-36.5692
  0
LINE
  8
0
 10
-215.312
 20
-36.5692
 11
-215.464
 21
-36.5311
  0
LINE
  8
0
 10
-215.464
 20
-36.5311
 11
-215.612
 21
-36.4782
  0
LINE
  8
0
 10
-215.612
 20
-36.4782
 11
-215.754
 21
-36.4111
  0
LINE
  8
0
 10
-215.754
 20
-36.4111
 11
-215.889
 21
-36.3304
  0
LINE
  8
0
 10
-215.889
 20
-36.3304
 11
-216.015
 21
-36.2368
  0
LINE
  8
0
 10
-216.015
 20
-36.2368
 11
-216.131
 21
-36.1314
  0
LINE
  8
0
 10
-216.131
 20
-36.1314
 11
-216.237
 21
-36.015
  0
LINE
  8
0
 10
-216.237
 20
-36.015
 11
-216.33
 21
-35.8889
  0
LINE
  8
0
 10
-216.33
 20
-35.8889
 11
-216.411
 21
-35.7542
  0
LINE
  8
0
 10
-216.411
 20
-35.7542
 11
-216.478
 21
-35.6123
  0
LINE
  8
0
 10
-216.478
 20
-35.6123
 11
-216.531
 21
-35.4644
  0
LINE
  8
0
 10
-216.531
 20
-35.4644
 11
-216.569
 21
-35.3121
  0
LINE
  8
0
 10
-216.569
 20
-35.3121
 11
-216.592
 21
-35.1568
  0
LINE
  8
0
 10
-216.592
 20
-35.1568
 11
-216.6
 21
-35
  0
LINE
  8
0
 10
-216.6
 20
-35
 11
-216.592
 21
-34.8432
  0
LINE
  8
0
 10
-216.592
 20
-34.8432
 11
-216.569
 21
-34.6879
  0
LINE
  8
0
 10
-216.569
 20
-34.6879
 11
-216.531
 21
-34.5355
  0
LINE
  8
0
 10
-216.531
 20
-34.5355
 11
-216.478
 21
-34.3877
  0
LINE
  8
0
 10
-216.478
 20
-34.3877
 11
-216.411
 21
-34.2458
  0
LINE
  8
0
 10
-216.411
 20
-34.2458
 11
-216.33
 21
-34.1111
  0
LINE
  8
0
 10
-216.33
 20
-34.1111
 11
-216.237
 21
-33.985
  0
LINE
  8
0
 10
-216.237
 20
-33.985
 11
-216.131
 21
-33.8686
  0
LINE
  8
0
 10
-216.131
 20
-33.8686
 11
-216.015
 21
-33.7632
  0
LINE
  8
0
 10
-216.015
 20
-33.7632
 11
-215.889
 21
-33.6696
  0
LINE
  8
0
 10
-215.889
 20
-33.6696
 11
-215.754
 21
-33.5889
  0
LINE
  8
0
 10
-215.754
 20
-33.5889
 11
-215.612
 21
-33.5218
  0
LINE
  8
0
 10
-215.612
 20
-33.5218
 11
-215.464
 21
-33.4689
  0
LINE
  8
0
 10
-215.464
 20
-33.4689
 11
-215.312
 21
-33.4307
  0
LINE
  8
0
 10
-215.312
 20
-33.4307
 11
-215.157
 21
-33.4077
  0
LINE
  8
0
 10
-215.157
 20
-33.4077
 11
-215
 21
-33.4
  0
LINE
  8
0
 10
-215
 20
-33.4
 11
-214.843
 21
-33.4077
  0
LINE
  8
0
 10
-214.843
 20
-33.4077
 11
-214.688
 21
-33.4307
  0
LINE
  8
0
 10
-214.688
 20
-33.4307
 11
-214.536
 21
-33.4689
  0
LINE
  8
0
 10
-214.536
 20
-33.4689
 11
-214.388
 21
-33.5218
  0
LINE
  8
0
 10
-214.388
 20
-33.5218
 11
-214.246
 21
-33.5889
  0
LINE
  8
0
 10
-214.246
 20
-33.5889
 11
-214.111
 21
-33.6696
  0
LINE
  8
0
 10
-214.111
 20
-33.6696
 11
-213.985
 21
-33.7632
  0
LINE
  8
0
 10
-213.985
 20
-33.7632
 11
-213.869
 21
-33.8686
  0
LINE
  8
0
 10
-213.869
 20
-33.8686
 11
-213.763
 21
-33.985
  0
LINE
  8
0
 10
-213.763
 20
-33.985
 11
-213.67
 21
-34.1111
  0
LINE
  8
0
 10
-213.67
 20
-34.1111
 11
-213.589
 21
-34.2458
  0
LINE
  8
0
 10
-213.589
 20
-34.2458
 11
-213.522
 21
-34.3877
  0
LINE
  8
0
 10
-213.522
 20
-34.3877
 11
-213.469
 21
-34.5355
  0
LINE
  8
0
 10
-213.469
 20
-34.5355
 11
-213.431
 21
-34.6879
  0
LINE
  8
0
 10
-213.431
 20
-34.6879
 11
-213.408
 21
-34.8432
  0
LINE
  8
0
 10
-213.408
 20
-34.8432
 11
-213.4
 21
-35
  0
LINE
  8
0
 10
-213.4
 20
-35
 11
-213.408
 21
-35.1568
  0
LINE
  8
0
 10
-213.408
 20
-35.1568
 11
-213.431
 21
-35.3121
  0
LINE
  8
0
 10
-213.431
 20
-35.3121
 11
-213.469
 21
-35.4644
  0
LINE
  8
0
 10
-213.469
 20
-35.4644
 11
-213.522
 21
-35.6123
  0
LINE
  8
0
 10
-213.522
 20
-35.6123
 11
-213.589
 21
-35.7542
  0
LINE
  8
0
 10
-213.589
 20
-35.7542
 11
-213.67
 21
-35.8889
  0
LINE
  8
0
 10
-213.67
 20
-35.8889
 11
-213.763
 21
-36.015
  0
LINE
  8
0
 10
-213.763
 20
-36.015
 11
-213.869
 21
-36.1314
  0
LINE
  8
0
 10
-213.869
 20
-36.1314
 11
-213.985
 21
-36.2368
  0
LINE
  8
0
 10
-213.985
 20
-36.2368
 11
-214.111
 21
-36.3304
  0
LINE
  8
0
 10
-214.111
 20
-36.3304
 11
-214.246
 21
-36.4111
  0
LINE
  8
0
 10
-214.246
 20
-36.4111
 11
-214.388
 21
-36.4782
  0
LINE
  8
0
 10
-214.388
 20
-36.4782
 11
-214.536
 21
-36.5311
  0
LINE
  8
0
 10
-214.536
 20
-36.5311
 11
-214.688
 21
-36.5692
  0
LINE
  8
0
 10
-214.688
 20
-36.5692
 11
-214.843
 21
-36.5923
  0
LINE
  8
0
 10
-214.843
 20
-36.5923
 11
-215
 21
-36.6
  0
LINE
  8
0
 10
-215
 20
-36.6
 11
-215.157
 21
-36.5923
  0
LINE
  8
0
 10
-215.157
 20
-96.5923
 11
-215.312
 21
-96.5693
  0
LINE
  8
0
 10
-215.312
 20
-96.5693
 11
-215.464
 21
-96.5311
  0
LINE
  8
0
 10
-215.464
 20
-96.5311
 11
-215.612
 21
-96.4782
  0
LINE
  8
0
 10
-215.612
 20
-96.4782
 11
-215.754
 21
-96.4111
  0
LINE
  8
0
 10
-215.754
 20
-96.4111
 11
-215.889
 21
-96.3304
  0
LINE
  8
0
 10
-215.889
 20
-96.3304
 11
-216.015
 21
-96.2368
  0
LINE
  8
0
 10
-216.015
 20
-96.2368
 11
-216.131
 21
-96.1314
  0
LINE
  8
0
 10
-216.131
 20
-96.1314
 11
-216.237
 21
-96.015
  0
LINE
  8
0
 10
-216.237
 20
-96.015
 11
-216.33
 21
-95.8889
  0
LINE
  8
0
 10
-216.33
 20
-95.8889
 11
-216.411
 21
-95.7542
  0
LINE
  8
0
 10
-216.411
 20
-95.7542
 11
-216.478
 21
-95.6123
  0
LINE
  8
0
 10
-216.478
 20
-95.6123
 11
-216.531
 21
-95.4644
  0
LINE
  8
0
 10
-216.531
 20
-95.4644
 11
-216.569
 21
-95.3121
  0
LINE
  8
0
 10
-216.569
 20
-95.3121
 11
-216.592
 21
-95.1568
  0
LINE
  8
0
 10
-216.592
 20
-95.1568
 11
-216.6
 21
-95
  0
LINE
  8
0
 10
-216.6
 20
-95
 11
-216.592
 21
-94.8432
  0
LINE
  8
0
 10
-216.592
 20
-94.8432
 11
-216.569
 21
-94.6879
  0
LINE
  8
0
 10
-216.569
 20
-94.6879
 11
-216.531
 21
-94.5355
  0
LINE
  8
0
 10
-216.531
 20
-94.5355
 11
-216.478
 21
-94.3877
  0
LINE
  8
0
 10
-216.478
 20
-94.3877
 11
-216.411
 21
-94.2458
  0
LINE
  8
0
 10
-216.411
 20
-94.2458
 11
-216.33
 21
-94.1111
  0
LINE
  8
0
 10
-216.33
 20
-94.1111
 11
-216.237
 21
-93.985
  0
LINE
  8
0
 10
-216.237
 20
-93.985
 11
-216.131
 21
-93.8686
  0
LINE
  8
0
 10
-216.131
 20
-93.8686
 11
-216.015
 21
-93.7632
  0
LINE
  8
0
 10
-216.015
 20
-93.7632
 11
-215.889
 21
-93.6696
  0
LINE
  8
0
 10
-215.889
 20
-93.6696
 11
-215.754
 21
-93.5889
  0
LINE
  8
0
 10
-215.754
 20
-93.5889
 11
-215.612
 21
-93.5218
  0
LINE
  8
0
 10
-215.612
 20
-93.5218
 11
-215.464
 21
-93.4689
  0
LINE
  8
0
 10
-215.464
 20
-93.4689
 11
-215.312
 21
-93.4307
  0
LINE
  8
0
 10
-215.312
 20
-93.4307
 11
-215.157
 21
-93.4077
  0
LINE
  8
0
 10
-215.157
 20
-93.4077
 11
-215
 21
-93.4
  0
LINE
  8
0
 10
-215
 20
-93.4
 11
-214.843
 21
-93.4077
  0
LINE
  8
0
 10
-214.843
 20
-93.4077
 11
-214.688
 21
-93.4307
  0
LINE
  8
0
 10
-214.688
 20
-93.4307
 11
-214.536
 21
-93.4689
  0
LINE
  8
0
 10
-214.536
 20
-93.4689
 11
-214.388
 21
-93.5218
  0
LINE
  8
0
 10
-214.388
 20
-93.5218
 11
-214.246
 21
-93.5889
  0
LINE
  8
0
 10
-214.246
 20
-93.5889
 11
-214.111
 21
-93.6696
  0
LINE
  8
0
 10
-214.111
 20
-93.6696
 11
-213.985
 21
-93.7632
  0
LINE
  8
0
 10
-213.985
 20
-93.7632
 11
-213.869
 21
-93.8686
  0
LINE
  8
0
 10
-213.869
 20
-93.8686
 11
-213.763
 21
-93.985
  0
LINE
  8
0
 10
-213.763
 20
-93.985
 11
-213.67
 21
-94.1111
  0
LINE
  8
0
 10
-213.67
 20
-94.1111
 11
-213.589
 21
-94.2458
  0
LINE
  8
0
 10
-213.589
 20
-94.2458
 11
-213.522
 21
-94.3877
  0
LINE
  8
0
 10
-213.522
 20
-94.3877
 11
-213.469
 21
-94.5355
  0
LINE
  8
0
 10
-213.469
 20
-94.5355
 11
-213.431
 21
-94.6879
  0
LINE
  8
0
 10
-213.431
 20
-94.6879
 11
-213.408
 21
-94.8432
  0
LINE
  8
0
 10
-213.408
 20
-94.8432
 11
-213.4
 21
-95
  0
LINE
  8
0
 10
-213.4
 20
-95
 11
-213.408
 21
-95.1568
  0
LINE
  8
0
 10
-213.408
 20
-95.1568
 11
-213.431
 21
-95.3121
  0
LINE
  8
0
 10
-213.431
 20
-95.3121
 11
-213.469
 21
-95.4644
  0
LINE
  8
0
 10
-213.469
 20
-95.4644
 11
-213.522
 21
-95.6123
  0
LINE
  8
0
 10
-213.522
 20
-95.6123
 11
-213.589
 21
-95.7542
  0
LINE
  8
0
 10
-213.589
 20
-95.7542
 11
-213.67
 21
-95.8889
  0
LINE
  8
0
 10
-213.67
 20
-95.8889
 11
-213.763
 21
-96.015
  0
LINE
  8
0
 10
-213.763
 20
-96.015
 11
-213.869
 21
-96.1314
  0
LINE
  8
0
 10
-213.869
 20
-96.1314
 11
-213.985
 21
-96.2368
  0
LINE
  8
0
 10
-213.985
 20
-96.2368
 11
-214.111
 21
-96.3304
  0
LINE
  8
0
 10
-214.111
 20
-96.3304
 11
-214.246
 21
-96.4111
  0
LINE
  8
0
 10
-214.246
 20
-96.4111
 11
-214.388
 21
-96.4782
  0
LINE
  8
0
 10
-214.388
 20
-96.4782
 11
-214.536
 21
-96.5311
  0
LINE
  8
0
 10
-214.536
 20
-96.5311
 11
-214.688
 21
-96.5693
  0
LINE
  8
0
 10
-214.688
 20
-96.5693
 11
-214.843
 21
-96.5923
  0
LINE
  8
0
 10
-214.843
 20
-96.5923
 11
-215
 21
-96.6
  0
LINE
  8
0
 10
-215
 20
-96.6
 11
-215.157
 21
-96.5923
  0
LINE
  8
0
 10
214.843
 20
-96.5923
 11
214.688
 21
-96.5693
  0
LINE
  8
0
 10
214.688
 20
-96.5693
 11
214.536
 21
-96.5311
  0
LINE
  8
0
 10
214.536
 20
-96.5311
 11
214.388
 21
-96.4782
  0
LINE
  8
0
 10
214.388
 20
-96.4782
 11
214.246
 21
-96.4111
  0
LINE
  8
0
 10
214.246
 20
-96.4111
 11
214.111
 21
-96.3304
  0
LINE
  8
0
 10
214.111
 20
-96.3304
 11
213.985
 21
-96.2368
  0
LINE
  8
0
 10
213.985
 20
-96.2368
 11
213.869
 21
-96.1314
  0
LINE
  8
0
 10
213.869
 20
-96.1314
 11
213.763
 21
-96.015
  0
LINE
  8
0
 10
213.763
 20
-96.015
 11
213.67
 21
-95.8889
  0
LINE
  8
0
 10
213.67
 20
-95.8889
 11
213.589
 21
-95.7542
  0
LINE
  8
0
 10
213.589
 20
-95.7542
 11
213.522
 21
-95.6123
  0
LINE
  8
0
 10
213.522
 20
-95.6123
 11
213.469
 21
-95.4644
  0
LINE
  8
0
 10
213.469
 20
-95.4644
 11
213.431
 21
-95.3121
  0
LINE
  8
0
 10
213.431
 20
-95.3121
 11
213.408
 21
-95.1568
  0
LINE
  8
0
 10
213.408
 20
-95.1568
 11
213.4
 21
-95
  0
LINE
  8
0
 10
213.4
 20
-95
 11
213.408
 21
-94.8432
  0
LINE
  8
0
 10
213.408
 20
-94.8432
 11
213.431
 21
-94.6879
  0
LINE
  8
0
 10
213.431
 20
-94.6879
 11
213.469
 21
-94.5355
  0
LINE
  8
0
 10
213.469
 20
-94.5355
 11
213.522
 21
-94.3877
  0
LINE
  8
0
 10
213.522
 20
-94.3877
 11
213.589
 21
-94.2458
  0
LINE
  8
0
 10
213.589
 20
-94.2458
 11
213.67
 21
-94.1111
  0
LINE
  8
0
 10
213.67
 20
-94.1111
 11
213.763
 21
-93.985
  0
LINE
  8
0
 10
213.763
 20
-93.985
 11
213.869
 21
-93.8686
  0
LINE
  8
0
 10
213.869
 20
-93.8686
 11
213.985
 21
-93.7632
  0
LINE
  8
0
 10
213.985
 20
-93.7632
 11
214.111
 21
-93.6696
  0
LINE
  8
0
 10
214.111
 20
-93.6696
 11
214.246
 21
-93.5889
  0
LINE
  8
0
 10
214.246
 20
-93.5889
 11
214.388
 21
-93.5218
  0
LINE
  8
0
 10
214.388
 20
-93.5218
 11
214.536
 21
-93.4689
  0
LINE
  8
0
 10
214.536
 20
-93.4689
 11
214.688
 21
-93.4307
  0
LINE
  8
0
 10
214.688
 20
-93.4307
 11
214.843
 21
-93.4077
  0
LINE
  8
0
 10
214.843
 20
-93.4077
 11
215
 21
-93.4
  0
LINE
  8
0
 10
215
 20
-93.4
 11
215.157
 21
-93.4077
  0
LINE
  8
0
 10
215.157
 20
-93.4077
 11
215.312
 21
-93.4307
  0
LINE
  8
0
 10
215.312
 20
-93.4307
 11
215.464
 21
-93.4689
  0
LINE
  8
0
 10
215.464
 20
-93.4689
 11
215.612
 21
-93.5218
  0
LINE
  8
0
 10
215.612
 20
-93.5218
 11
215.754
 21
-93.5889
  0
LINE
  8
0
 10
215.754
 20
-93.5889
 11
215.889
 21
-93.6696
  0
LINE
  8
0
 10
215.889
 20
-93.6696
 11
216.015
 21
-93.7632
  0
LINE
  8
0
 10
216.015
 20
-93.7632
 11
216.131
 21
-93.8686
  0
LINE
  8
0
 10
216.131
 20
-93.8686
 11
216.237
 21
-93.985
  0
LINE
  8
0
 10
216.237
 20
-93.985
 11
216.33
 21
-94.1111
  0
LINE
  8
0
 10
216.33
 20
-94.1111
 11
216.411
 21
-94.2458
  0
LINE
  8
0
 10
216.411
 20
-94.2458
 11
216.478
 21
-94.3877
  0
LINE
  8
0
 10
216.478
 20
-94.3877
 11
216.531
 21
-94.5355
  0
LINE
  8
0
 10
216.531
 20
-94.5355
 11
216.569
 21
-94.6879
  0
LINE
  8
0
 10
216.569
 20
-94.6879
 11
216.592
 21
-94.8432
  0
LINE
  8
0
 10
216.592
 20
-94.8432
 11
216.6
 21
-95
  0
LINE
  8
0
 10
216.6
 20
-95
 11
216.592
 21
-95.1568
  0
LINE
  8
0
 10
216.592
 20
-95.1568
 11
216.569
 21
-95.3121
  0
LINE
  8
0
 10
216.569
 20
-95.3121
 11
216.531
 21
-95.4644
  0
LINE
  8
0
 10
216.531
 20
-95.4644
 11
216.478
 21
-95.6123
  0
LINE
  8
0
 10
216.478
 20
-95.6123
 11
216.411
 21
-95.7542
  0
LINE
  8
0
 10
216.411
 20
-95.7542
 11
216.33
 21
-95.8889
  0
LINE
  8
0
 10
216.33
 20
-95.8889
 11
216.237
 21
-96.015
  0
LINE
  8
0
 10
216.237
 20
-96.015
 11
216.131
 21
-96.1314
  0
LINE
  8
0
 10
216.131
 20
-96.1314
 11
216.015
 21
-96.2368
  0
LINE
  8
0
 10
216.015
 20
-96.2368
 11
215.889
 21
-96.3304
  0
LINE
  8
0
 10
215.889
 20
-96.3304
 11
215.754
 21
-96.4111
  0
LINE
  8
0
 10
215.754
 20
-96.4111
 11
215.612
 21
-96.4782
  0
LINE
  8
0
 10
215.612
 20
-96.4782
 11
215.464
 21
-96.5311
  0
LINE
  8
0
 10
215.464
 20
-96.5311
 11
215.312
 21
-96.5693
  0
LINE
  8
0
 10
215.312
 20
-96.5693
 11
215.157
 21
-96.5923
  0
LINE
  8
0
 10
215.157
 20
-96.5923
 11
215
 21
-96.6
  0
LINE
  8
0
 10
215
 20
-96.6
 11
214.843
 21
-96.5923
  0
ENDSEC
  0
SECTION
  2
OBJECTS
  0
DICTIONARY
  0
ENDSEC
  0
EOF
